<svg width="48" height="48" viewBox="0 0 48 48" fill="none" xmlns="http://www.w3.org/2000/svg">
<path d="M38.8641 2H9.373C7.51014 2 6 3.51014 6 5.373V42.627C6 44.4899 7.51014 46 9.373 46H38.8641C40.7269 46 42.2371 44.4899 42.2371 42.627V5.373C42.2371 3.51014 40.7269 2 38.8641 2Z" stroke="#1E253E" stroke-width="2" stroke-linecap="round" stroke-linejoin="round"/>
<path d="M7.2876 11.9402H42.2258" stroke="#1E253E" stroke-width="2" stroke-linecap="round" stroke-linejoin="round"/>
<path d="M16.3428 18.5452H9.86865V22.4317H16.3428V18.5452Z" stroke="#1E253E" stroke-width="1.5" stroke-linecap="round" stroke-linejoin="round"/>
<path d="M27.9778 18.5452H20.2148V22.4317H27.9778V18.5452Z" stroke="#1E253E" stroke-width="1.5" stroke-linecap="round" stroke-linejoin="round"/>
<path d="M38.3394 18.5452H31.8652V22.4317H38.3394V18.5452Z" stroke="#1E253E" stroke-width="1.5" stroke-linecap="round" stroke-linejoin="round"/>
<path d="M16.3428 27.7434H9.86865V31.6299H16.3428V27.7434Z" stroke="#1E253E" stroke-width="1.5" stroke-linecap="round" stroke-linejoin="round"/>
<path d="M27.9778 27.7434H20.2148V31.6299H27.9778V27.7434Z" stroke="#1E253E" stroke-width="1.5" stroke-linecap="round" stroke-linejoin="round"/>
<path d="M38.3394 27.7434H31.8652V31.6299H38.3394V27.7434Z" stroke="#1E253E" stroke-width="1.5" stroke-linecap="round" stroke-linejoin="round"/>
<path d="M38.9643 36.3975H10.2998V40.6971H38.9643V36.3975Z" stroke="#1E253E" stroke-width="1.5" stroke-linecap="round" stroke-linejoin="round"/>
</svg>
