<svg width="48" height="48" viewBox="0 0 48 48" fill="none" xmlns="http://www.w3.org/2000/svg">
<path d="M28.0005 19.5C28.0005 19.5 29.9505 7.9965 22.0005 3C21.8845 4.97607 21.3538 6.90558 20.4428 8.66297C19.5318 10.4204 18.261 11.9662 16.713 13.2C13.317 16.2 6.93303 22.926 7.00053 30.12C7.05603 35.9325 10.218 43.0425 17.517 45.57C17.5065 45.42 17.5005 45.27 17.5005 45.12C17.5764 42.45 18.6134 39.8971 20.421 37.9305C21.9226 36.4399 22.8447 34.4634 23.022 32.355C27.3165 34.746 29.5005 41.055 29.5005 44.805C29.5005 45.024 29.5005 45.2445 29.4795 45.4635C32.4352 44.4591 35.017 42.5826 36.8845 40.0812C38.752 37.5798 39.8175 34.5712 39.9405 31.452C40.536 24.3 36.6135 18.1155 34.0005 14.85" stroke="#1E253E" stroke-width="2" stroke-miterlimit="10" stroke-linecap="round" stroke-linejoin="round"/>
</svg>
