<svg width="48" height="48" viewBox="0 0 48 48" fill="none" xmlns="http://www.w3.org/2000/svg">
<path d="M14.7342 26.9241H5V45.9996H14.7342V26.9241Z" stroke="#1E253E" stroke-width="2" stroke-linecap="round" stroke-linejoin="round"/>
<path d="M24.4691 19.8513H14.7349V46.0002H24.4691V19.8513Z" stroke="#1E253E" stroke-width="2" stroke-linecap="round" stroke-linejoin="round"/>
<path d="M34.2054 24.4424H24.4712V45.9992H34.2054V24.4424Z" stroke="#1E253E" stroke-width="2" stroke-linecap="round" stroke-linejoin="round"/>
<path d="M43.9408 14.2258H34.2065V45.9997H43.9408V14.2258Z" stroke="#1E253E" stroke-width="2" stroke-linecap="round" stroke-linejoin="round"/>
<path d="M7.87424 16.9658C9.46164 16.9658 10.7485 15.6789 10.7485 14.0915C10.7485 12.5041 9.46164 11.2173 7.87424 11.2173C6.28684 11.2173 5 12.5041 5 14.0915C5 15.6789 6.28684 16.9658 7.87424 16.9658Z" stroke="#1E253E" stroke-width="2" stroke-linecap="round" stroke-linejoin="round"/>
<path d="M22.4808 6.22071C22.492 6.79414 22.332 7.35788 22.0213 7.83997C21.7106 8.32205 21.2633 8.70061 20.7365 8.92731C20.2096 9.15401 19.6272 9.21857 19.0635 9.11275C18.4998 9.00692 17.9804 8.7355 17.5717 8.33316C17.163 7.93081 16.8834 7.41579 16.7687 6.85384C16.654 6.29188 16.7094 5.7085 16.9278 5.17817C17.1462 4.64783 17.5176 4.19461 17.9948 3.87635C18.4719 3.5581 19.0331 3.38925 19.6066 3.39138C20.3612 3.39129 21.0855 3.68793 21.6233 4.21728C22.161 4.74663 22.469 5.46622 22.4808 6.22071Z" stroke="#1E253E" stroke-width="2" stroke-linecap="round" stroke-linejoin="round"/>
<path d="M42.1547 3.87426C42.1569 4.4459 41.9893 5.00532 41.6731 5.48155C41.3569 5.95778 40.9064 6.32936 40.3787 6.54914C39.8509 6.76893 39.2698 6.82701 38.7091 6.71604C38.1483 6.60506 37.6331 6.33002 37.2289 5.9258C36.8247 5.52159 36.5497 5.00642 36.4387 4.44565C36.3277 3.88488 36.3858 3.30378 36.6056 2.77607C36.8254 2.24837 37.1969 1.79783 37.6732 1.48163C38.1494 1.16543 38.7088 0.997802 39.2805 1.00002C40.0418 1.00298 40.7712 1.30675 41.3096 1.84513C41.848 2.38352 42.1517 3.11288 42.1547 3.87426Z" stroke="#1E253E" stroke-width="2" stroke-linecap="round" stroke-linejoin="round"/>
<path d="M10.2466 12.4636L17.1515 7.71436" stroke="#1E253E" stroke-width="2" stroke-linecap="round" stroke-linejoin="round"/>
<path d="M22.2368 7.71403L29.3326 11.217L36.9336 5.54712" stroke="#1E253E" stroke-width="2" stroke-linecap="round" stroke-linejoin="round"/>
</svg>
