<svg width="48" height="48" viewBox="0 0 48 48" fill="none" xmlns="http://www.w3.org/2000/svg">
<path d="M8.60128 22.8486C8.40502 20.526 8.84454 18.1938 9.87273 16.102C10.9009 14.0101 12.479 12.2376 14.4378 10.9742C15.9657 10.104 17.6657 9.57901 19.4183 9.43623C21.1708 9.29346 22.9334 9.53636 24.582 10.1478C26.2306 10.7593 27.7253 11.7246 28.9608 12.9756C30.1964 14.2267 31.1429 15.7333 31.7337 17.3894C32.6916 19.9821 32.5876 22.848 31.4444 25.3644C30.7181 26.7625 29.9074 28.1152 29.0167 29.4148C27.9144 30.9877 27.0655 32.7237 26.5009 34.5595C26.1443 36.4789 26.026 38.4351 26.1487 40.3835C26.1487 40.3835 26.4632 44.698 20.7524 44.9999" stroke="#1E253E" stroke-width="2" stroke-miterlimit="10" stroke-linecap="round"/>
<path d="M15.1903 22.75C15.139 21.2198 15.6923 19.731 16.7305 18.6057C17.7687 17.4804 19.2082 16.8092 20.7375 16.7373C22.255 16.8154 23.6794 17.4924 24.6982 18.6197C25.717 19.747 26.2469 21.2324 26.1716 22.75" stroke="#1E253E" stroke-width="2" stroke-miterlimit="10" stroke-linecap="round"/>
<path d="M35.5151 10.8618L43.3643 3" stroke="#1E253E" stroke-width="2" stroke-miterlimit="10" stroke-linecap="round"/>
<path d="M4 42.2494L15.2958 30.9536" stroke="#1E253E" stroke-width="2" stroke-miterlimit="10" stroke-linecap="round"/>
</svg>
