<svg width="48" height="48" viewBox="0 0 48 48" fill="none" xmlns="http://www.w3.org/2000/svg">
<path d="M43.9095 18.2502C44.0172 17.6466 44.073 17.0348 44.0762 16.4217C44.1178 14.0512 43.3872 11.7314 41.9945 9.81263C40.6018 7.89386 38.6228 6.4802 36.3561 5.78506C34.0893 5.08992 31.658 5.15103 29.4291 5.95916C27.2002 6.76729 25.2946 8.27858 24.0001 10.2649C22.9996 8.76217 21.648 7.52588 20.0623 6.663C18.4765 5.80013 16.7044 5.33666 14.8993 5.3127C11.9717 5.33361 9.17199 6.51498 7.11441 8.59763C5.05682 10.6803 3.90942 13.4941 3.92396 16.4217C3.92721 17.0348 3.98299 17.6466 4.09071 18.2502" stroke="#1E253E" stroke-width="2" stroke-miterlimit="10" stroke-linecap="round" stroke-linejoin="round"/>
<path d="M10.0317 29.75C14.2079 34.9857 18.8862 39.8003 23.9999 44.125C29.114 39.8007 33.7924 34.9861 37.9681 29.75" stroke="#1E253E" stroke-width="2" stroke-miterlimit="10" stroke-linecap="round" stroke-linejoin="round"/>
<path d="M2.4375 24H15.375L19.6875 16.8125L28.3125 29.75L32.625 24H45.5625" stroke="#1E253E" stroke-width="2" stroke-miterlimit="10" stroke-linecap="round" stroke-linejoin="round"/>
</svg>
