<svg width="48" height="48" viewBox="0 0 48 48" fill="none" xmlns="http://www.w3.org/2000/svg">
<rect x="2" y="2" width="44" height="44" rx="22" stroke="#1E253E" stroke-width="2"/>
<g clip-path="url(#clip0_1253_25)">
<path d="M16.6729 23.4077C16.611 23.3511 16.5455 23.2987 16.4767 23.2507C16.0636 22.9991 15.6479 22.756 15.2363 22.5114C15.8799 22.1728 16.4037 21.6816 16.7459 20.9902L14.7537 19.5923H17.0951C17.1369 18.0746 16.0374 16.5906 14.5202 16.1936C13.003 15.7965 11.3228 16.6012 10.651 18.0504C9.97919 19.4997 10.3491 21.5805 12.3222 22.5879C11.6091 22.8712 11.0017 23.2924 10.5403 23.9008C10.438 24.0376 10.3795 24.2022 10.3727 24.3728C10.3631 26.8114 10.3657 29.252 10.3662 31.6926C10.3662 31.764 10.3787 31.836 10.3858 31.9064H17.3035C17.309 31.7897 17.3181 31.6911 17.3181 31.5924C17.3181 29.3375 17.2939 27.0821 17.3352 24.8277C17.3468 24.2002 17.1268 23.772 16.6729 23.4077Z" fill="#1E253E"/>
<path d="M37.3142 23.3709C37.295 23.3546 37.2748 23.3394 37.2538 23.3256L36.0536 22.5648C37.8677 21.6801 38.4288 19.6929 37.7298 18.1159C37.0012 16.4719 35.1579 15.6889 33.4897 16.3063C32.0007 16.8598 31.1357 18.4953 31.2902 19.6149H33.5723L31.6062 20.9963C31.9635 21.6791 32.4753 22.1698 33.1541 22.5321C32.349 22.834 31.6832 23.2688 31.1916 23.9411C31.1053 24.0583 31.0554 24.1983 31.0482 24.3436C31.0401 26.8013 31.0384 29.2587 31.0431 31.7157C31.0463 31.78 31.0532 31.844 31.0638 31.9074H37.9769C37.9829 31.8139 37.9925 31.7404 37.9925 31.6669C37.9925 29.3853 37.9663 27.1038 38.0136 24.8232C38.0267 24.1685 37.7726 23.7433 37.3142 23.3709Z" fill="#1E253E"/>
<path d="M27.1005 23.4822C27.0828 23.464 27.0638 23.4472 27.0437 23.4319C26.548 23.1123 26.0523 22.7938 25.5904 22.4969C27.0497 21.7924 27.7296 20.2772 27.4312 18.7811C27.1539 17.4023 25.9089 16.2953 24.4712 16.1659C23.7641 16.1062 23.0562 16.2729 22.4501 16.6421C21.844 17.0113 21.371 17.5638 21.0997 18.2196C20.9332 18.6148 20.8468 19.0392 20.8456 19.4681C20.8444 19.897 20.9284 20.3218 21.0927 20.718C21.4218 21.5428 22.0181 22.127 22.8217 22.5296C21.9084 22.8959 21.3503 23.2804 20.8722 23.9064C20.7692 24.0433 20.7099 24.2082 20.7022 24.3794C20.6916 26.8029 20.6946 29.2259 20.6951 31.6488C20.6951 31.7309 20.7057 31.8129 20.7117 31.9045H27.641V31.4818C27.641 29.2264 27.6214 26.9705 27.6566 24.7156C27.6656 24.1751 27.4805 23.8042 27.1005 23.4822ZM22.3421 19.6502H26.006L24.1754 20.9802C23.578 20.5479 22.9802 20.1137 22.3421 19.6502Z" fill="#1E253E"/>
<path d="M30.3642 20.6405C29.795 20.65 29.2219 20.6863 28.6573 20.6349C28.1304 20.5871 27.7696 20.8297 27.3887 21.1678C27.5316 21.276 27.6649 21.3636 27.7822 21.4698C27.8702 21.5513 27.974 21.614 28.0873 21.6538C28.2005 21.6936 28.3207 21.7098 28.4404 21.7012C29.0679 21.6821 29.6984 21.6962 30.3239 21.6952C30.413 21.6952 30.5021 21.6871 30.6067 21.6821C30.6067 21.3963 30.5946 21.1366 30.6107 20.877C30.6248 20.6812 30.5433 20.6369 30.3642 20.6405Z" fill="#1E253E"/>
<path d="M19.3879 19.3417C18.9919 19.392 18.5853 19.3512 18.1837 19.3512H17.4883V20.3999C18.307 20.3999 19.1016 20.3999 19.8962 20.3999C19.9619 20.3971 20.0257 20.3762 20.0803 20.3395C20.2816 20.2047 20.4759 20.0608 20.6922 19.9063C20.3063 19.544 19.9344 19.2752 19.3879 19.3417Z" fill="#1E253E"/>
<path d="M30.3714 20.398C30.4288 20.3927 30.4837 20.3716 30.5299 20.3371C30.7312 20.2007 30.9259 20.0583 31.1599 19.8923C30.9586 19.7413 30.79 19.6024 30.6094 19.4847C30.5179 19.4181 30.4104 19.3768 30.2979 19.3649C29.5934 19.3518 28.8889 19.3523 28.1874 19.3518C28.1056 19.3561 28.0241 19.3654 27.9434 19.3795V20.4005C28.7681 20.4005 29.5708 20.402 30.3714 20.398Z" fill="#1E253E"/>
<path d="M19.9057 20.643C19.3194 20.6535 18.7287 20.6888 18.1475 20.6344C17.6292 20.5841 17.3096 20.8724 16.9297 21.1573C17.0726 21.2675 17.2044 21.354 17.3182 21.4592C17.5195 21.6479 17.7479 21.7108 18.0252 21.7007C18.6195 21.6811 19.2148 21.6952 19.8096 21.6937C19.9163 21.6937 20.0234 21.6816 20.1548 21.6736C20.1548 21.4028 20.1432 21.1522 20.1588 20.9031C20.1684 20.7069 20.1019 20.6395 19.9057 20.643Z" fill="#1E253E"/>
</g>
<defs>
<clipPath id="clip0_1253_25">
<rect width="27.6788" height="15.8125" fill="white" transform="translate(10.3438 16.0938)"/>
</clipPath>
</defs>
</svg>
