<svg width="48" height="48" viewBox="0 0 48 48" fill="none" xmlns="http://www.w3.org/2000/svg">
<path d="M18.6777 12.5441C18.3677 13.8683 18.4549 15.2544 18.9285 16.5292C19.4021 17.8041 20.2409 18.911 21.3402 19.7116C21.7193 20 22.0245 20.3743 22.2308 20.8036C22.437 21.2329 22.5385 21.7051 22.5267 22.1812V23.9659C22.5267 24.7334 22.8316 25.4695 23.3744 26.0122C23.9171 26.555 24.6532 26.8599 25.4208 26.8599V26.8599C26.1883 26.8599 26.9244 26.555 27.4671 26.0122C28.0099 25.4695 28.3148 24.7334 28.3148 23.9659V22.0365C28.3049 21.5896 28.4012 21.1467 28.5958 20.7443C28.7903 20.3418 29.0775 19.9912 29.4338 19.7213C30.3436 19.071 31.0822 18.2098 31.5862 17.2115C32.0902 16.2132 32.3446 15.1076 32.3277 13.9894C32.3107 12.8713 32.0229 11.7739 31.4889 10.7913C30.9549 9.80875 30.1906 8.97033 29.2615 8.34789C28.3325 7.72545 27.2663 7.33757 26.1545 7.21749C25.0426 7.0974 23.9183 7.24869 22.8777 7.6584C21.8372 8.06811 20.9115 8.724 20.18 9.56988C19.4485 10.4158 18.933 11.4264 18.6777 12.5152V12.5441Z" stroke="#1E253E" stroke-width="2" stroke-linecap="round" stroke-linejoin="round"/>
<path d="M24.8436 2L24.834 4.31522" stroke="#1E253E" stroke-width="2" stroke-linecap="round" stroke-linejoin="round"/>
<path d="M12.1016 14.7339H15.5744" stroke="#1E253E" stroke-width="2" stroke-linecap="round" stroke-linejoin="round"/>
<path d="M35.2676 14.7339H38.7404" stroke="#1E253E" stroke-width="2" stroke-linecap="round" stroke-linejoin="round"/>
<path d="M22.5347 22.8464H28.3227" stroke="#1E253E" stroke-width="2" stroke-linecap="round" stroke-linejoin="round"/>
<path d="M17.9258 21.2649L15.9868 23.2714" stroke="#1E253E" stroke-width="2" stroke-linecap="round" stroke-linejoin="round"/>
<path d="M33.9832 5.26074L32.0249 7.16115" stroke="#1E253E" stroke-width="2" stroke-linecap="round" stroke-linejoin="round"/>
<path d="M32.0249 21.2649L33.9832 23.2714" stroke="#1E253E" stroke-width="2" stroke-linecap="round" stroke-linejoin="round"/>
<path d="M15.9868 5.26074L17.9258 7.16115" stroke="#1E253E" stroke-width="2" stroke-linecap="round" stroke-linejoin="round"/>
<path d="M31.8758 36.41L40.9341 34.4807C41.3877 34.369 41.8659 34.4174 42.2878 34.6178C42.7097 34.8182 43.0494 35.1583 43.2493 35.5804C43.3942 36.049 43.3551 36.5552 43.1401 36.996C42.925 37.4368 42.5502 37.7792 42.0917 37.9535L26.2807 44.6001C23.5848 45.5471 20.7453 46.0203 17.888 45.9989C16.1508 46.017 14.4188 45.8062 12.7367 45.3718L10.9424 44.8413" stroke="#1E253E" stroke-width="2" stroke-linecap="round" stroke-linejoin="round"/>
<path d="M17.8913 39.0531H28.8983C29.6658 39.0531 30.4019 38.7482 30.9446 38.2055C31.4874 37.6628 31.7923 36.9266 31.7923 36.1591C31.7923 35.3916 31.4874 34.6555 30.9446 34.1127C30.4019 33.57 29.6658 33.2651 28.8983 33.2651H21.3738L20.4091 32.5223C18.044 30.7476 15.1663 29.7895 12.2094 29.7922V29.7922C10.3446 29.7897 8.49926 30.1706 6.78791 30.9113L4 32.1075" stroke="#1E253E" stroke-width="2" stroke-linecap="round" stroke-linejoin="round"/>
</svg>
