<svg width="48" height="48" viewBox="0 0 48 48" fill="none" xmlns="http://www.w3.org/2000/svg">
<path d="M34.8157 2H13.4984C11.014 2 9 4.01401 9 6.49841V35.5774C9 38.0618 11.014 40.0758 13.4984 40.0758H34.8157C37.3001 40.0758 39.3141 38.0618 39.3141 35.5774V6.49841C39.3141 4.01401 37.3001 2 34.8157 2Z" stroke="#1E253E" stroke-width="2" stroke-linecap="round" stroke-linejoin="round"/>
<path d="M15.4287 32.8914H21.353" stroke="#1E253E" stroke-width="2" stroke-linecap="round" stroke-linejoin="round"/>
<path d="M26.9546 32.8914H32.8788" stroke="#1E253E" stroke-width="2" stroke-linecap="round" stroke-linejoin="round"/>
<path d="M24.1507 21.3654L25.7271 17.3791H22.5742L24.1507 13.4028" stroke="#1E253E" stroke-width="2" stroke-linecap="round" stroke-linejoin="round"/>
<path d="M30.3792 23.6025C33.8181 20.1636 33.8181 14.5879 30.3792 11.1489C26.9402 7.70995 21.3645 7.70995 17.9255 11.1489C14.4866 14.5879 14.4866 20.1636 17.9255 23.6025C21.3645 27.0415 26.9402 27.0415 30.3792 23.6025Z" stroke="#1E253E" stroke-width="2" stroke-linecap="round" stroke-linejoin="round"/>
<path d="M28.2583 40.0757V45.9999" stroke="#1E253E" stroke-width="2" stroke-linecap="round" stroke-linejoin="round"/>
<path d="M20.0459 40.0757V45.9999" stroke="#1E253E" stroke-width="2" stroke-linecap="round" stroke-linejoin="round"/>
</svg>
