<svg width="48" height="48" viewBox="0 0 48 48" fill="none" xmlns="http://www.w3.org/2000/svg">
<path d="M33.2173 9.92415H36.965C37.2309 9.92179 37.4946 9.97226 37.7408 10.0727C37.987 10.1731 38.2109 10.3214 38.3993 10.509C38.5877 10.6966 38.737 10.9198 38.8385 11.1655C38.94 11.4113 38.9916 11.6748 38.9904 11.9407V42.9923C38.9904 43.5248 38.7789 44.0355 38.4024 44.412C38.0259 44.7885 37.5153 45 36.9828 45H11.9987C11.7355 45 11.4749 44.948 11.2318 44.847C10.9887 44.746 10.768 44.598 10.5823 44.4114C10.3966 44.2249 10.2495 44.0035 10.1496 43.76C10.0497 43.5164 9.99884 43.2556 10 42.9923V11.9407C9.99884 11.6775 10.0497 11.4166 10.1496 11.1731C10.2495 10.9296 10.3966 10.7082 10.5823 10.5216C10.768 10.3351 10.9887 10.1871 11.2318 10.0861C11.4749 9.98506 11.7355 9.93307 11.9987 9.93307H15.791" stroke="#1D294E" stroke-width="2" stroke-linecap="round" stroke-linejoin="round"/>
<path d="M29.6926 7.97004L27.0872 3H21.894L19.2975 7.97004H15.7729V12.0478H33.2172V7.97004H29.6926Z" stroke="#1D294E" stroke-width="2" stroke-linecap="round" stroke-linejoin="round"/>
<path d="M20.481 33.583H26.4308C27.2193 33.5797 27.9743 33.2641 28.5307 32.7054C29.087 32.1467 29.3994 31.3903 29.3994 30.6018V30.6018C29.3994 29.8145 29.0866 29.0594 28.5299 28.5027C27.9732 27.946 27.2181 27.6332 26.4308 27.6332H23.4622C22.6737 27.6332 21.9173 27.3209 21.3586 26.7645C20.7999 26.2082 20.4843 25.4531 20.481 24.6646V24.6646C20.4843 23.8762 20.7999 23.1211 21.3586 22.5648C21.9173 22.0084 22.6737 21.696 23.4622 21.696H29.3994" stroke="#1D294E" stroke-width="2" stroke-linecap="round" stroke-linejoin="round"/>
<path d="M24.9443 18.7153V21.6839" stroke="#1D294E" stroke-width="2" stroke-linecap="round" stroke-linejoin="round"/>
<path d="M24.9443 33.5706V36.5391" stroke="#1D294E" stroke-width="2" stroke-linecap="round" stroke-linejoin="round"/>
</svg>
