<svg width="48" height="48" viewBox="0 0 48 48" fill="none" xmlns="http://www.w3.org/2000/svg">
<path d="M32.9651 12.3336V5.85973C32.9651 5.10129 32.6638 4.3739 32.1275 3.8376C31.5912 3.30129 30.8638 3 30.1053 3H9.9847L2 9.91871V41.3963C2 42.1557 2.30096 42.8841 2.83697 43.4221C3.37298 43.96 4.10034 44.2636 4.85973 44.2663H30.1053C30.8638 44.2663 31.5912 43.965 32.1275 43.4287C32.6638 42.8924 32.9651 42.165 32.9651 41.4065V36.9786" stroke="#1E253E" stroke-width="2" stroke-linecap="round" stroke-linejoin="round"/>
<path d="M11.6288 3V11.2533H2" stroke="#1E253E" stroke-width="2" stroke-linecap="round" stroke-linejoin="round"/>
<path d="M33.0789 31.9455L23.6489 34.795L26.9289 25.3445L39.2288 13.1676C39.9053 12.4911 41.2173 12.6961 42.1501 13.6288L45.1431 16.6218C46.0655 17.5546 46.2808 18.8665 45.6043 19.543L33.0789 31.9455Z" stroke="#1E253E" stroke-width="2" stroke-linecap="round" stroke-linejoin="round"/>
<path d="M33.0483 30.8119L27.7695 25.5229" stroke="#1E253E" stroke-width="2" stroke-linecap="round" stroke-linejoin="round"/>
<path d="M26.5579 33.7772L24.8462 32.0244" stroke="#1E253E" stroke-width="2" stroke-linecap="round" stroke-linejoin="round"/>
<path d="M36.6943 15.8779L42.7828 21.9766" stroke="#1E253E" stroke-width="2" stroke-linecap="round" stroke-linejoin="round"/>
</svg>
