<svg width="51" height="48" viewBox="0 0 51 48" fill="none" xmlns="http://www.w3.org/2000/svg">
<path d="M46.2842 16.874L49.3042 17.3436" stroke="#1E253E" stroke-width="2" stroke-linecap="round" stroke-linejoin="round"/>
<path d="M23.6675 8.66675L26.5831 9.5424" stroke="#1E253E" stroke-width="2" stroke-linecap="round" stroke-linejoin="round"/>
<path d="M37.6683 19.9999C38.335 19.9999 39.6683 19.3332 40.339 18.7776C40.9214 18.095 41.3367 17.2861 41.5519 16.4149C41.7672 15.5438 41.7764 14.6345 41.5788 13.7592C41.3813 12.8839 40.9825 12.0667 40.414 11.3724C39.8455 10.6781 39.123 10.1259 38.3039 9.7596C37.4847 9.39328 36.5915 9.22294 35.695 9.26209C34.7985 9.30124 33.9235 9.54881 33.1395 9.98515C32.3554 10.4215 31.6838 11.0346 31.178 11.7758C30.6722 12.5169 30.335 13.3332 30.335 13.3332" stroke="#1E253E" stroke-width="2" stroke-linecap="round" stroke-linejoin="round"/>
<path d="M1 46H41.7612" stroke="#1E253E" stroke-width="2" stroke-linecap="round" stroke-linejoin="round"/>
<path d="M3.59814 45.9614V32.9998L10.6996 17.4978L17.9647 32.9998V45.9614" stroke="#1E253E" stroke-width="2" stroke-linecap="round" stroke-linejoin="round"/>
<path d="M39.3952 45.9614V32.9998L32.1398 17.4978H10.7007" stroke="#1E253E" stroke-width="2" stroke-linecap="round" stroke-linejoin="round"/>
<path d="M17.9648 33H39.327" stroke="#1E253E" stroke-width="2" stroke-linecap="round" stroke-linejoin="round"/>
<path d="M15.7915 27.7844H36.7014" stroke="#1E253E" stroke-width="2" stroke-linecap="round" stroke-linejoin="round"/>
<path d="M13.3501 22.5691H34.3081" stroke="#1E253E" stroke-width="2" stroke-linecap="round" stroke-linejoin="round"/>
<path d="M18.0405 17.6135L25.3344 32.9712" stroke="#1E253E" stroke-width="2" stroke-linecap="round" stroke-linejoin="round"/>
<path d="M25.1333 17.604L32.4272 32.9616" stroke="#1E253E" stroke-width="2" stroke-linecap="round" stroke-linejoin="round"/>
<path d="M42.3311 23.3333L43.7744 26.018" stroke="#1E253E" stroke-width="2" stroke-linecap="round" stroke-linejoin="round"/>
<path d="M31.6646 2L33.0983 4.69432" stroke="#1E253E" stroke-width="2" stroke-linecap="round" stroke-linejoin="round"/>
<path d="M44.9844 6.00015L42.5817 7.88948" stroke="#1E253E" stroke-width="2" stroke-linecap="round" stroke-linejoin="round"/>
</svg>
