<svg width="48" height="48" viewBox="0 0 48 48" fill="none" xmlns="http://www.w3.org/2000/svg">
<path d="M15.625 15.75L14.1788 16.4593C11.6709 17.6773 9.60537 19.364 8.17513 21.362C6.74489 23.36 5.99656 25.604 6.00001 27.8845V46" stroke="#1E253E" stroke-width="2" stroke-linecap="round" stroke-linejoin="round"/>
<path d="M38.6676 4.86252C38.529 4.34142 38.3047 3.85865 38.0079 3.44252C37.7111 3.0264 37.3477 2.6853 36.9391 2.43925C36.5305 2.1932 36.0849 2.04714 35.6284 2.00966C35.1719 1.97218 34.7138 2.04402 34.2808 2.22097L18.4862 8.44845C17.3185 8.95062 16.3609 9.97737 15.817 11.3103C15.2731 12.6432 15.1858 14.1771 15.5738 15.5857C15.9617 16.9943 16.7943 18.1665 17.8943 18.8529C18.9944 19.5392 20.2751 19.6857 21.4641 19.261L22.4606 11.569L38.6676 4.86252Z" stroke="#1E253E" stroke-width="2" stroke-linecap="round" stroke-linejoin="round"/>
<path d="M37.0317 7.33179C37.0317 7.33179 39.1433 12.255 35.0251 13.6549L21.8071 17.9715" stroke="#1E253E" stroke-width="2" stroke-linecap="round" stroke-linejoin="round"/>
<path d="M26.3458 21.7856L25.9375 24.6789" stroke="#1E253E" stroke-width="2" stroke-linecap="round" stroke-linejoin="round"/>
<path d="M34.0801 20.2925L35.0134 22.9874" stroke="#1E253E" stroke-width="2" stroke-linecap="round" stroke-linejoin="round"/>
<path d="M40.418 17.2969L42.9262 18.8835" stroke="#1E253E" stroke-width="2" stroke-linecap="round" stroke-linejoin="round"/>
</svg>
