<svg width="16" height="16" viewBox="0 0 16 16" fill="none" xmlns="http://www.w3.org/2000/svg">
<path d="M10.8 5.2C10.4134 4.8134 9.7866 4.8134 9.4 5.2L8 6.6L6.6 5.2C6.2134 4.8134 5.5866 4.8134 5.2 5.2C4.8134 5.5866 4.8134 6.2134 5.2 6.6L6.6 8L5.2 9.4C4.8134 9.7866 4.8134 10.4134 5.2 10.8C5.5866 11.1866 6.2134 11.1866 6.6 10.8L8 9.4L9.4 10.8C9.7866 11.1866 10.4134 11.1866 10.8 10.8C11.1866 10.4134 11.1866 9.7866 10.8 9.4L9.4 8L10.8 6.6C11.1866 6.2134 11.1866 5.5866 10.8 5.2Z" fill="#1D294E"/>
<path d="M8 0C3.6 0 0 3.6 0 8C0 12.4 3.6 16 8 16C12.4 16 16 12.4 16 8C16 3.6 12.4 0 8 0ZM8 14C4.7 14 2 11.3 2 8C2 4.7 4.7 2 8 2C11.3 2 14 4.7 14 8C14 11.3 11.3 14 8 14Z" fill="#1D294E"/>
</svg>
