<svg width="16" height="16" viewBox="0 0 16 16" fill="none" xmlns="http://www.w3.org/2000/svg">
<path d="M8 16C9.58225 16 11.129 15.5308 12.4446 14.6518C13.7602 13.7727 14.7855 12.5233 15.391 11.0615C15.9965 9.59966 16.155 7.99113 15.8463 6.43928C15.5376 4.88743 14.7757 3.46197 13.6569 2.34315C12.538 1.22433 11.1126 0.462399 9.56072 0.153718C8.00887 -0.154964 6.40034 0.00346279 4.93853 0.608964C3.47672 1.21447 2.22729 2.23985 1.34824 3.55544C0.469188 4.87103 -3.8147e-06 6.41775 -3.8147e-06 8C0.00632668 10.1198 0.851215 12.1509 2.35014 13.6499C3.84906 15.1488 5.88021 15.9937 8 16V16ZM8 2C9.18668 2 10.3467 2.35189 11.3334 3.01118C12.3201 3.67047 13.0891 4.60754 13.5433 5.7039C13.9974 6.80026 14.1162 8.00666 13.8847 9.17054C13.6532 10.3344 13.0818 11.4035 12.2426 12.2426C11.4035 13.0818 10.3344 13.6532 9.17054 13.8847C8.00665 14.1162 6.80025 13.9974 5.7039 13.5433C4.60754 13.0892 3.67047 12.3201 3.01118 11.3334C2.35189 10.3467 2 9.18669 2 8C2.00474 6.41016 2.63841 4.8868 3.7626 3.7626C4.88679 2.63841 6.41016 2.00475 8 2Z" fill="#1D294E"/>
<path d="M4.5 9H7V11.5C7 11.7652 7.10536 12.0196 7.29289 12.2071C7.48043 12.3946 7.73478 12.5 8 12.5C8.26522 12.5 8.51957 12.3946 8.70711 12.2071C8.89464 12.0196 9 11.7652 9 11.5V8C9 7.73478 8.89464 7.48043 8.70711 7.29289C8.51957 7.10536 8.26522 7 8 7L4.5 7C4.23478 7 3.98043 7.10536 3.79289 7.29289C3.60536 7.48043 3.5 7.73478 3.5 8C3.5 8.26522 3.60536 8.51957 3.79289 8.70711C3.98043 8.89464 4.23478 9 4.5 9Z" fill="#1D294E"/>
</svg>
