<svg width="17" height="16" viewBox="0 0 17 16" fill="none" xmlns="http://www.w3.org/2000/svg">
<path fill-rule="evenodd" clip-rule="evenodd" d="M2.23593 12.4499C1.92171 12.7633 1.92171 13.2714 2.23593 13.5848C2.55016 13.8983 3.05963 13.8983 3.37386 13.5848L7.92535 9.04512L12.477 13.585C12.7912 13.8984 13.3007 13.8984 13.6149 13.585C13.9291 13.2715 13.9291 12.7634 13.6149 12.45L9.06327 7.91014L13.6151 3.37004C13.9294 3.05662 13.9294 2.54848 13.6151 2.23506C13.3009 1.92165 12.7914 1.92165 12.4772 2.23506L7.92535 6.77516L3.37359 2.23518C3.05936 1.92176 2.5499 1.92176 2.23567 2.23518C1.92144 2.54859 1.92144 3.05674 2.23567 3.37016L6.78743 7.91014L2.23593 12.4499Z" fill="#1E253E"/>
</svg>
