<svg width="16" height="16" viewBox="0 0 16 16" fill="none" xmlns="http://www.w3.org/2000/svg">
<path d="M8.718 9.81704C8.49761 9.93729 8.25056 10.0003 7.9995 10.0003C7.74844 10.0003 7.50139 9.93729 7.281 9.81704L2 6.93604V11.5C2 11.8979 2.15804 12.2794 2.43934 12.5607C2.72064 12.842 3.10218 13 3.5 13H12.5C12.8978 13 13.2794 12.842 13.5607 12.5607C13.842 12.2794 14 11.8979 14 11.5V6.93604L8.718 9.81704Z" fill="#1D294E"/>
<path d="M8 9C7.91649 8.99994 7.83432 8.97897 7.761 8.939L2.261 5.939C2.18206 5.89604 2.11615 5.83259 2.07022 5.75534C2.02429 5.67808 2.00003 5.58988 2 5.5V4.5C2 4.10218 2.15804 3.72064 2.43934 3.43934C2.72064 3.15804 3.10218 3 3.5 3H12.5C12.8978 3 13.2794 3.15804 13.5607 3.43934C13.842 3.72064 14 4.10218 14 4.5V5.5C14 5.58988 13.9757 5.67808 13.9298 5.75534C13.8838 5.83259 13.8179 5.89604 13.739 5.939L8.239 8.939C8.16568 8.97897 8.08351 8.99994 8 9Z" fill="#1D294E"/>
</svg>
