<svg width="16" height="16" viewBox="0 0 16 16" fill="none" xmlns="http://www.w3.org/2000/svg">
<path d="M8 0C3.58737 0 0 3.58737 0 8C0 12.4126 3.58737 16 8 16C12.4126 16 16 12.4126 16 8C16 3.58737 12.4126 0 8 0ZM13.1874 12.2779L10.3411 9.43158L9.56632 10.4589L12.2779 13.1705C11.0653 14.1642 9.54947 14.72 8 14.72C4.29474 14.72 1.28 11.7053 1.28 8C1.28 6.45053 1.83579 4.93474 2.82947 3.72211L5.67579 6.56842L6.45053 5.54105L3.72211 2.82947C4.93474 1.83579 6.45053 1.28 8 1.28C11.7053 1.28 14.72 4.29474 14.72 8C14.72 9.54947 14.1811 11.0653 13.1874 12.2779Z" fill="#1D294E"/>
<path d="M8 0C3.58737 0 0 3.58737 0 8C0 12.4126 3.58737 16 8 16C12.4126 16 16 12.4126 16 8C16 3.58737 12.4126 0 8 0ZM13.1874 12.2779L10.3411 9.43158L9.56632 10.4589L12.2779 13.1705C11.0653 14.1642 9.54947 14.72 8 14.72C4.29474 14.72 1.28 11.7053 1.28 8C1.28 6.45053 1.83579 4.93474 2.82947 3.72211L5.67579 6.56842L6.45053 5.54105L3.72211 2.82947C4.93474 1.83579 6.45053 1.28 8 1.28C11.7053 1.28 14.72 4.29474 14.72 8C14.72 9.54947 14.1811 11.0653 13.1874 12.2779Z" fill="#1D294E"/>
<path d="M10.2227 7.12422H8.82479L9.24584 4.3958C9.29637 4.00843 8.80795 3.80633 8.57216 4.10949L5.49005 8.28633C5.30479 8.53896 5.49005 8.8758 5.79321 8.8758H7.1911L6.77005 11.6042C6.71952 11.9916 7.20794 12.1937 7.44373 11.8905L10.5258 7.73054C10.6943 7.47791 10.5258 7.12422 10.2227 7.12422Z" fill="#1D294E"/>
<path d="M10.2227 7.12422H8.82479L9.24584 4.3958C9.29637 4.00843 8.80795 3.80633 8.57216 4.10949L5.49005 8.28633C5.30479 8.53896 5.49005 8.8758 5.79321 8.8758H7.1911L6.77005 11.6042C6.71952 11.9916 7.20794 12.1937 7.44373 11.8905L10.5258 7.73054C10.6943 7.47791 10.5258 7.12422 10.2227 7.12422Z" fill="#1D294E"/>
</svg>
