<svg width="16" height="15" viewBox="0 0 16 15" fill="none" xmlns="http://www.w3.org/2000/svg">
<path d="M2.29941 14.5857H13.7098C15.6506 14.5857 16.5677 13.0072 15.6293 11.3444L9.87079 1.26283C8.91103 -0.420944 7.07684 -0.420944 6.11709 1.26283L0.3799 11.3444C-0.579853 13.0282 0.358572 14.5857 2.29941 14.5857ZM1.76621 12.1232L7.5034 2.04158C7.78066 1.55749 8.1219 1.43121 8.46315 2.04158L14.2217 12.1232C14.5629 12.7336 14.2217 13.0072 13.6885 13.0072H2.29941C1.57426 13.0072 1.48895 12.6494 1.76621 12.1232Z" fill="#1D294E"/>
<path d="M2.29941 14.5857H13.7098C15.6506 14.5857 16.5677 13.0072 15.6293 11.3444L9.87079 1.26283C8.91103 -0.420944 7.07684 -0.420944 6.11709 1.26283L0.3799 11.3444C-0.579853 13.0282 0.358572 14.5857 2.29941 14.5857ZM1.76621 12.1232L7.5034 2.04158C7.78066 1.55749 8.1219 1.43121 8.46315 2.04158L14.2217 12.1232C14.5629 12.7336 14.2217 13.0072 13.6885 13.0072H2.29941C1.57426 13.0072 1.48895 12.6494 1.76621 12.1232Z" fill="#1D294E"/>
<path d="M7.61015 9.85018H8.35663C8.59123 9.85018 8.78318 9.66076 8.78318 9.42924V4.96723C8.78318 4.60943 8.50592 4.33582 8.14335 4.33582H7.82343C7.46086 4.33582 7.18359 4.60943 7.18359 4.96723V9.45029C7.18359 9.68181 7.37554 9.85018 7.61015 9.85018Z" fill="#1D294E"/>
<path d="M7.61015 9.85018H8.35663C8.59123 9.85018 8.78318 9.66076 8.78318 9.42924V4.96723C8.78318 4.60943 8.50592 4.33582 8.14335 4.33582H7.82343C7.46086 4.33582 7.18359 4.60943 7.18359 4.96723V9.45029C7.18359 9.68181 7.37554 9.85018 7.61015 9.85018Z" fill="#1D294E"/>
<path d="M7.99405 12.2287C8.44166 12.2287 8.80451 11.8707 8.80451 11.4289C8.80451 10.9872 8.44166 10.6292 7.99405 10.6292C7.54645 10.6292 7.18359 10.9872 7.18359 11.4289C7.18359 11.8707 7.54645 12.2287 7.99405 12.2287Z" fill="#1D294E"/>
<path d="M7.99405 12.2287C8.44166 12.2287 8.80451 11.8707 8.80451 11.4289C8.80451 10.9872 8.44166 10.6292 7.99405 10.6292C7.54645 10.6292 7.18359 10.9872 7.18359 11.4289C7.18359 11.8707 7.54645 12.2287 7.99405 12.2287Z" fill="#1D294E"/>
</svg>
