<svg width="16" height="16" viewBox="0 0 16 16" fill="none" xmlns="http://www.w3.org/2000/svg">
<path d="M7.99968 2.99995C9.17868 2.99995 10.3107 3.42295 11.2047 4.16995L8.88268 6.49195L15.0937 7.03095L14.5547 0.819946L12.6247 2.74995C11.3527 1.63195 9.70968 0.999946 7.99968 0.999946C4.56668 0.999946 1.66368 3.45395 1.09668 6.83395L3.06968 7.16495C3.47368 4.75195 5.54768 2.99995 7.99968 2.99995Z" fill="#1D294E"/>
<path d="M7.99976 13C6.82076 13 5.68876 12.577 4.79476 11.83L7.11676 9.50796L0.905762 8.96896L1.44476 15.18L3.37476 13.25C4.64676 14.368 6.28976 15 7.99976 15C11.4328 15 14.3358 12.546 14.9028 9.16596L12.9298 8.83496C12.5258 11.248 10.4518 13 7.99976 13Z" fill="#1D294E"/>
</svg>
