<svg width="16" height="18" viewBox="0 0 16 18" fill="none" xmlns="http://www.w3.org/2000/svg">
<path d="M3.80285 13.3316C3.64409 13.1887 3.50806 13.0649 3.4 12.9648V12.958L3.10258 12.6643C2.21584 11.7888 1.70818 11.0536 1.41143 10.3369C1.11565 9.62255 1 8.85613 1 7.86819C1 4.05237 4.07941 1 8 1C11.9206 1 15 4.05237 15 7.86819C15 9.75096 14.2983 11.4963 12.9256 12.7499L12.912 12.7624L12.8988 12.7754C12.9027 12.7715 12.8918 12.7813 12.8623 12.8078C12.8308 12.8361 12.778 12.8835 12.6995 12.9537C12.5642 13.0746 12.3765 13.2417 12.1534 13.44C11.7074 13.8366 11.122 14.3561 10.5362 14.8761L10.3119 15.0752C9.38227 15.9002 8.46345 16.7157 8.18189 16.9703C8.14529 16.99 8.09835 17.0021 8.04912 16.9997C7.99476 16.997 7.9453 16.9776 7.90121 16.9343L7.2 17.6472L7.90121 16.9343C7.85361 16.8875 7.43353 16.5211 6.86937 16.0291C6.43563 15.6509 5.91672 15.1984 5.41645 14.7597C4.82416 14.2403 4.23889 13.724 3.80285 13.3316Z" stroke="#1D294E" stroke-width="2"/>
<path d="M8 10C9.10457 10 10 9.10457 10 8C10 6.89543 9.10457 6 8 6C6.89543 6 6 6.89543 6 8C6 9.10457 6.89543 10 8 10Z" fill="#1D294E"/>
</svg>
