<svg width="32" height="32" viewBox="0 0 32 32" fill="none" xmlns="http://www.w3.org/2000/svg">
<path d="M19 29.2L11 26L1 29V5L11 2L21 6L31 3V13" stroke="#1D294E" stroke-width="2" stroke-miterlimit="10" stroke-linecap="round" stroke-linejoin="round"/>
<path d="M25 22C25.5523 22 26 21.5523 26 21C26 20.4477 25.5523 20 25 20C24.4477 20 24 20.4477 24 21C24 21.5523 24.4477 22 25 22Z" fill="#1D294E"/>
<path d="M31 20.844C31 24.451 25 30 25 30C25 30 19 24.451 19 20.844C19 17.146 22.101 15 25 15C27.899 15 31 17.146 31 20.844Z" stroke="#1D294E" stroke-width="2" stroke-miterlimit="10" stroke-linecap="round" stroke-linejoin="round"/>
</svg>
