<svg width="24" height="24" viewBox="0 0 24 24" fill="none" xmlns="http://www.w3.org/2000/svg">
<path d="M7.75684 7.86613C7.74521 7.72066 7.86012 7.59619 8.00605 7.59619H15.9935C16.1394 7.59619 16.2543 7.72066 16.2427 7.86613L15.4796 17.4046C15.4692 17.5345 15.3608 17.6347 15.2304 17.6347H8.76912C8.63878 17.6347 8.53031 17.5345 8.51992 17.4046L7.75684 7.86613Z" stroke="#1D294E" stroke-width="1.5"/>
<path d="M6 6.55774C5.58579 6.55774 5.25 6.89353 5.25 7.30774C5.25 7.72195 5.58579 8.05774 6 8.05774V6.55774ZM18 8.05774C18.4142 8.05774 18.75 7.72195 18.75 7.30774C18.75 6.89353 18.4142 6.55774 18 6.55774V8.05774ZM6 8.05774H18V6.55774H6V8.05774Z" fill="#1D294E"/>
<path d="M9.69238 7.30769V5.25C9.69238 5.11193 9.80431 5 9.94238 5H14.0578C14.1958 5 14.3078 5.11193 14.3078 5.25V7.30769" stroke="#1D294E" stroke-width="1.5"/>
</svg>
