<svg width="24" height="24" viewBox="0 0 24 24" fill="none" xmlns="http://www.w3.org/2000/svg">
<path d="M13.2556 8.63006C14.2809 8.63006 15.2922 8.63006 16.3175 8.63006C16.195 9.75472 16.0725 10.869 15.9488 11.9994C15.4992 12.0006 15.0541 11.9994 14.6091 11.9994C14.163 11.9994 13.7168 11.9994 13.2776 11.9994C13.2683 12.0098 13.266 12.0121 13.2625 12.0144C13.2602 12.0168 13.2568 12.0202 13.2556 12.0237C13.2533 12.0306 13.2521 12.0387 13.2521 12.0468C13.251 12.0618 13.251 12.078 13.251 12.093C13.251 15.3769 13.251 18.6607 13.2498 21.9445C13.2498 21.9526 13.2487 21.9595 13.2475 21.9676C13.2464 21.9711 13.2452 21.9746 13.244 21.978C13.162 22.0012 8.9176 22.0092 8.74653 21.9838C8.74653 18.6618 8.74653 15.3387 8.74653 12.0017C8.15819 12.0017 7.58372 12.0017 7 12.0017C7.00116 10.8748 7.00116 9.7605 7.00116 8.63469C7.57678 8.63469 8.15241 8.63469 8.73497 8.63469C8.73959 8.59423 8.74537 8.56534 8.74537 8.53528C8.74537 7.8198 8.74306 7.10316 8.74422 6.38768C8.74537 5.65948 8.82975 4.944 9.09098 4.25857C9.4493 3.31769 10.1081 2.68081 11.049 2.33289C11.4732 2.17569 11.9125 2.09016 12.3621 2.04392C12.6996 2.00925 13.0371 2 13.377 2C14.393 2.00116 15.409 2.00116 16.4262 2.00116C16.4724 2.00116 16.5175 2.00116 16.5614 2.00116C16.5857 2.09016 16.5949 5.12085 16.5718 5.35318C16.5325 5.35318 16.492 5.35318 16.4516 5.35318C15.817 5.35318 15.1813 5.35318 14.5467 5.35318C14.3421 5.35318 14.1398 5.37051 13.941 5.42253C13.5284 5.52887 13.3238 5.76466 13.2787 6.19234C13.2648 6.32642 13.2556 6.4605 13.2544 6.59573C13.251 7.23493 13.2521 7.87413 13.2521 8.51332C13.251 8.54569 13.2533 8.57921 13.2556 8.63006Z" fill="#1D294E"/>
</svg>
