<svg width="24" height="24" viewBox="0 0 24 24" fill="none" xmlns="http://www.w3.org/2000/svg">
<g clip-path="url(#clip0_1183_18435)">
<path d="M12.5586 8.06712C12.0961 8.06712 8.89737 8.05359 8.78175 8.09351L8.7817 10.1826V13.6552C8.74316 15.9703 8.74316 18.2455 8.74316 20.5605C8.74316 20.7202 8.74316 20.7202 8.89732 20.7202H12.6742C12.8284 20.7202 12.8284 20.7202 12.8284 20.5605V13.6552V13.2162C12.8284 12.8569 12.9825 12.4977 13.1752 12.1784C13.445 11.6994 13.7918 11.3801 14.2929 11.2204C14.6783 11.0608 15.0637 11.0608 15.4876 11.1406C16.0271 11.2603 16.374 11.5397 16.6438 12.0187C16.7979 12.2981 16.875 12.6174 16.9521 12.9368C16.9906 13.296 17.0292 13.6951 17.0292 14.0544V20.5206V20.6404C17.0292 20.7202 17.0292 20.7202 17.1062 20.7202H17.1448H20.9602H21.0758V20.5206V13.8149C21.0758 13.4557 21.0373 13.1363 21.0373 12.7771C20.9987 12.338 20.9217 11.899 20.8446 11.4599C20.6904 10.8213 20.4592 10.1826 20.0738 9.62381C19.6884 9.065 19.1874 8.58602 18.5708 8.2667C17.877 7.90746 17.1448 7.7478 16.374 7.7478C16.0657 7.7478 15.7574 7.78772 15.4491 7.82763L15.449 7.82763C14.8324 7.90746 14.2543 8.14695 13.7533 8.5461C13.3679 8.82551 13.0596 9.18475 12.7898 9.5839C12.7513 9.66373 12.7127 9.70364 12.6742 9.74356V8.06712H12.5586Z" fill="#1D294E"/>
<path d="M2.26999 20.7999C2.26999 20.7201 2.26999 20.6802 2.26999 20.6403C2.26999 20.0016 2.26999 19.363 2.26999 18.7243C2.26999 15.2517 2.26999 11.7791 2.26999 8.30651C2.26999 8.10693 2.23145 8.10693 2.46268 8.10693C3.69595 8.10693 4.92922 8.10693 6.16248 8.10693C6.35518 8.10693 6.35518 8.10693 6.35518 8.30651C6.35518 12.4178 6.35518 16.529 6.35518 20.6403C6.35518 20.8798 6.35518 20.8399 6.16248 20.8399C4.92922 20.8399 3.65741 20.8399 2.42415 20.8399C2.34707 20.7999 2.30853 20.7999 2.26999 20.7999Z" fill="#1D294E"/>
<path d="M4.35135 6.43057C3.8118 6.43057 3.38786 6.35074 3.00246 6.07134C2.46291 5.75202 2.15459 5.23312 2.03898 4.59448C1.9619 4.07558 2.00044 3.55669 2.27021 3.11762C2.57853 2.55881 3.041 2.23949 3.6191 2.11975C3.85033 2.03992 4.04303 2 4.23573 2C4.69821 2 5.19922 2.07983 5.58462 2.31932C6.12417 2.63864 6.43249 3.11762 6.5481 3.75626C6.66372 4.43482 6.5481 5.03355 6.12417 5.55244C5.81585 5.99151 5.35338 6.231 4.85236 6.31083C4.6982 6.39066 4.50551 6.39066 4.35135 6.43057Z" fill="#1D294E"/>
</g>
<defs>
<clipPath id="clip0_1183_18435">
<rect width="19" height="18.8" fill="white" transform="translate(2 2)"/>
</clipPath>
</defs>
</svg>
