<svg width="24" height="24" viewBox="0 0 24 24" fill="none" xmlns="http://www.w3.org/2000/svg">
<g clip-path="url(#clip0_1183_18440)">
<path d="M2.45292 9.92192C3.08579 10.1027 3.67347 10.2384 4.21593 10.374C2.49812 8.79178 2.04607 6.98357 3.04059 4.7685C5.34607 7.43562 8.14881 8.8822 11.5844 9.10822C11.6296 8.38493 11.6296 7.70685 11.7652 7.07398C12.5337 4.04521 16.2406 2.96028 18.5461 5.08493C18.7721 5.26576 18.9077 5.31096 19.1789 5.22055C19.9022 4.94932 20.6255 4.72329 21.3488 4.45206C21.0776 5.31096 20.4899 5.94384 19.7666 6.57672C20.1283 6.4863 20.4447 6.4411 20.8063 6.35069C21.168 6.26028 21.4844 6.12466 21.8009 6.03425C21.8461 6.07946 21.8913 6.12466 21.8913 6.16987C21.3488 6.71233 20.8515 7.3 20.2639 7.79726C19.9926 8.02329 19.9022 8.24932 19.9022 8.61096C19.8118 12.7699 18.1392 16.1151 14.7036 18.5562C12.9858 19.7767 10.9968 20.3644 8.9173 20.5C6.56662 20.6356 4.35155 20.1836 2.3173 19.0534C2.22689 19.0082 2.18168 18.963 2.09127 18.9178C2.04607 18.9178 2.00086 18.8726 2.04607 18.8726C3.04059 18.737 4.08032 18.6014 5.07484 18.3753C6.06936 18.1493 6.97347 17.6521 7.92278 16.9288C6.02415 16.7479 4.7584 15.8438 4.03511 14.126C4.62278 14.0808 5.21045 14.0808 5.75292 14.0356C5.75292 13.9904 5.75292 13.9452 5.75292 13.9452C3.71867 13.3123 2.63374 12.0014 2.45292 9.92192Z" fill="#1D294E"/>
</g>
<defs>
<clipPath id="clip0_1183_18440">
<rect width="19.8904" height="16.5" fill="white" transform="translate(2 4)"/>
</clipPath>
</defs>
</svg>
