<svg width="24" height="24" viewBox="0 0 24 24" fill="none" xmlns="http://www.w3.org/2000/svg">
<g clip-path="url(#clip0_1183_18436)">
<path d="M14.182 19.6539C13.4308 19.6539 12.6736 19.66 11.9224 19.6539C10.8622 19.6418 9.80207 19.6055 8.74191 19.5873C7.66359 19.5691 6.59131 19.557 5.51299 19.5388C4.94959 19.5267 4.38619 19.5085 3.8228 19.448C3.34421 19.3995 2.85957 19.3389 2.3931 19.2056C1.7146 19.0118 1.19967 18.5998 0.848304 17.988C0.605983 17.57 0.466649 17.1156 0.36972 16.6492C0.27885 16.213 0.224328 15.7707 0.181921 15.3285C0.139515 14.7954 0.084993 14.2684 0.0547028 13.7352C-0.00587744 12.7902 -0.0119355 11.8451 0.0122966 10.894C0.0304707 10.2216 0.0728769 9.55521 0.133457 8.88883C0.212212 8.11946 0.303082 7.35009 0.442417 6.58072C0.551461 5.98097 0.79984 5.44181 1.24813 5.01169C1.58133 4.69062 1.9751 4.48464 2.41733 4.36954C2.67177 4.3029 2.93832 4.27261 3.19882 4.25444C3.52595 4.23626 3.84703 4.20597 4.17416 4.1878C4.51947 4.16962 4.87083 4.15145 5.21614 4.13328C6.19754 4.09693 7.185 4.04846 8.1664 4.03029C9.55975 4.00606 10.9531 4 12.3464 4C13.2127 4 14.073 4.01212 14.9393 4.03029C15.7571 4.04241 16.5749 4.0727 17.3928 4.09087C17.6957 4.09693 17.9986 4.09693 18.3015 4.12116C18.665 4.15145 19.0345 4.19386 19.398 4.24232C19.6585 4.27867 19.919 4.32713 20.1734 4.39983C20.9549 4.61792 21.5183 5.10256 21.8818 5.82347C22.0999 6.24753 22.2271 6.70188 22.3119 7.16835C22.4088 7.67722 22.4573 8.1861 22.4997 8.70103C22.53 9.13115 22.5663 9.56127 22.6027 9.99139C22.6148 10.2034 22.6269 10.4155 22.633 10.6275C22.6633 11.3847 22.6633 12.142 22.6269 12.8992C22.5966 13.6141 22.5421 14.3289 22.4573 15.0377C22.3906 15.5708 22.3301 16.1039 22.2271 16.631C22.1362 17.0975 22.0029 17.5579 21.7848 17.988C21.3911 18.7574 20.755 19.1935 19.9069 19.3147C19.5676 19.3632 19.2284 19.3813 18.8891 19.4056C18.4893 19.4359 18.0895 19.4601 17.6896 19.4843C17.3807 19.5025 17.0778 19.5207 16.7688 19.5388C16.3629 19.5631 15.951 19.5812 15.5451 19.5994C15.0907 19.6176 14.6364 19.6297 14.182 19.6418C14.182 19.6479 14.182 19.6539 14.182 19.6539ZM9.09934 15.1286C11.0379 14.02 12.9522 12.9114 14.8787 11.8149C14.7454 11.7119 9.18415 8.52535 9.09934 8.50717C9.09934 10.7062 9.09934 12.9053 9.09934 15.1286Z" fill="#1D294E"/>
</g>
<defs>
<clipPath id="clip0_1183_18436">
<rect width="22.657" height="15.66" fill="white" transform="translate(0 4)"/>
</clipPath>
</defs>
</svg>
