<svg width="31" height="30" viewBox="0 0 31 30" fill="none" xmlns="http://www.w3.org/2000/svg">
<path d="M16.4922 6.25977C18.2617 6.30386 19.9473 7.02314 21.2035 8.27015C22.4597 9.51716 23.1913 11.1974 23.2484 12.9666" stroke="#4574BF" stroke-width="2" stroke-linecap="round" stroke-linejoin="round"/>
<path d="M16.6133 2.4458C19.3395 2.5185 21.9364 3.6235 23.8792 5.53745C25.8219 7.4514 26.9656 10.0315 27.079 12.7564" stroke="#4574BF" stroke-width="2" stroke-linecap="round" stroke-linejoin="round"/>
<path d="M26.7877 27.3961L20.9766 23.4961" stroke="#4574BF" stroke-width="2" stroke-linecap="round" stroke-linejoin="round"/>
<path d="M6.41951 9.0814L2.56187 3.28435L2.14578 3.66518C0.735301 4.95576 1.02445 6.08414 1.02445 6.08414C1.99768 12.9884 9.26867 19.6388 9.82581 20.1889C10.5734 20.8941 17.0615 28.0029 23.9658 28.9691C23.9658 28.9691 25.0942 29.2935 26.3848 27.8407L26.7868 27.4176C27.2804 26.7617 28.9871 24.5543 29.0012 24.1876C29.0272 23.9207 28.9742 23.6522 28.8488 23.4152C28.7234 23.1782 28.5312 22.9833 28.296 22.8547L23.2183 19.4695C22.9196 19.2368 22.5571 19.1006 22.1791 19.0792C21.8011 19.0578 21.4256 19.1521 21.1025 19.3496L18.0348 21.0493C16.352 19.7122 14.7528 18.2731 13.2462 16.7403C11.7196 15.2369 10.2853 13.6425 8.95131 11.9658L10.6439 8.90509C10.8414 8.58207 10.9357 8.20652 10.9143 7.82851C10.8929 7.45051 10.7567 7.08801 10.524 6.78938L7.1318 1.71167C7.00316 1.47646 6.80825 1.28422 6.57128 1.15884C6.33432 1.03346 6.06573 0.980466 5.7989 1.00643C5.1593 1.18619 4.99209 1.26529 4.5 1.71167" stroke="#4574BF" stroke-width="2" stroke-linecap="round" stroke-linejoin="round"/>
</svg>
