<svg width="32" height="30" viewBox="0 0 32 30" fill="none" xmlns="http://www.w3.org/2000/svg">
<path d="M19 28.2L11 25L1 28V4L11 1L21 5L31 2V12" stroke="#4574BF" stroke-width="2" stroke-miterlimit="10" stroke-linecap="round" stroke-linejoin="round"/>
<path d="M25 21C25.5523 21 26 20.5523 26 20C26 19.4477 25.5523 19 25 19C24.4477 19 24 19.4477 24 20C24 20.5523 24.4477 21 25 21Z" fill="#4574BF"/>
<path d="M31 19.844C31 23.451 25 29 25 29C25 29 19 23.451 19 19.844C19 16.146 22.101 14 25 14C27.899 14 31 16.146 31 19.844Z" stroke="#4574BF" stroke-width="2" stroke-miterlimit="10" stroke-linecap="round" stroke-linejoin="round"/>
</svg>
