<svg width="102" height="138" viewBox="0 0 102 138" fill="none" xmlns="http://www.w3.org/2000/svg">
<g id="pointer">
<g id="pointing" filter="url(#filter0_d_1183_19255)">
<path id="Shape" d="M36.8096 72.8398C35.9696 71.7598 34.9196 69.5698 33.0896 66.8398C32.0396 65.3398 29.4596 62.4898 28.6796 61.0198C28.1173 60.1265 27.9542 59.0388 28.2296 58.0198C28.7005 56.0824 30.5383 54.7972 32.5196 55.0198C34.052 55.3276 35.4603 56.0787 36.5696 57.1798C37.3442 57.9093 38.0566 58.702 38.6996 59.5498C39.1796 60.1498 39.2996 60.3898 39.8396 61.0798C40.3796 61.7698 40.7396 62.4598 40.4696 61.4398C40.2596 59.9398 39.8996 57.4198 39.3896 55.1698C38.9996 53.4598 38.9096 53.1898 38.5496 51.8998C38.1896 50.6098 37.9796 49.5298 37.5896 48.0598C37.2331 46.6155 36.9527 45.1535 36.7496 43.6798C36.3715 41.7949 36.6466 39.8374 37.5296 38.1298C38.5778 37.1439 40.1154 36.8837 41.4296 37.4698C42.7514 38.4458 43.7369 39.8087 44.2496 41.3698C45.0358 43.2909 45.5605 45.309 45.8096 47.3698C46.2896 50.3698 47.2196 54.7498 47.2496 55.6498C47.2496 54.5398 47.0396 52.1998 47.2496 51.1498C47.4577 50.0552 48.2185 49.1467 49.2596 48.7498C50.153 48.4757 51.0982 48.414 52.0196 48.5698C52.9497 48.7642 53.7736 49.2992 54.3296 50.0698C55.0247 51.82 55.4104 53.6776 55.4696 55.5598C55.55 53.9115 55.8321 52.2794 56.3096 50.6998C56.8109 49.9934 57.543 49.4842 58.3796 49.2598C59.3714 49.0784 60.3878 49.0784 61.3796 49.2598C62.1929 49.5317 62.9043 50.0443 63.4196 50.7298C64.0549 52.3208 64.4395 54.0008 64.5596 55.7098C64.5596 56.1298 64.7696 54.5398 65.4296 53.4898C65.7726 52.4716 66.6327 51.7137 67.686 51.5016C68.7393 51.2895 69.8257 51.6555 70.536 52.4616C71.2463 53.2677 71.4726 54.3916 71.1296 55.4098C71.1296 57.3598 71.1296 57.2698 71.1296 58.5898C71.1296 59.9098 71.1296 61.0798 71.1296 62.1898C71.0203 63.9453 70.7796 65.6902 70.4096 67.4098C69.8875 68.9311 69.1609 70.3744 68.2496 71.6998C66.793 73.3197 65.5894 75.1503 64.6796 77.1298C64.4539 78.1132 64.3531 79.1211 64.3796 80.1298C64.3766 81.0617 64.4977 81.9898 64.7396 82.8898C63.513 83.0195 62.2762 83.0195 61.0496 82.8898C59.8796 82.7098 58.4396 80.3698 58.0496 79.6498C57.8567 79.2632 57.4617 79.0189 57.0296 79.0189C56.5975 79.0189 56.2026 79.2632 56.0096 79.6498C55.3496 80.7898 53.8796 82.8598 52.8596 82.9798C50.8496 83.2198 46.7096 82.9798 43.4396 82.9798C43.4396 82.9798 43.9796 79.9798 42.7496 78.8998C41.5196 77.8198 40.2596 76.5598 39.3296 75.7198L36.8096 72.8398Z" fill="white"/>
<path id="Shape_2" fill-rule="evenodd" clip-rule="evenodd" d="M72.2518 62.2594C72.254 60.4945 72.254 60.4945 72.254 58.5895V55.579C72.6371 54.2314 72.3116 52.7754 71.3794 51.7176C70.4034 50.6099 68.9106 50.107 67.4633 50.3984C66.4772 50.597 65.6143 51.1437 65.0155 51.9144C64.8574 51.371 64.6733 50.8371 64.4638 50.3123C63.6659 49.1857 62.7653 48.5367 61.7357 48.1925C60.4557 47.947 59.3022 47.947 58.1766 48.1528C57.0503 48.4512 56.1296 49.0702 55.4803 49.9273C55.4458 49.836 55.4106 49.745 55.3745 49.6542C54.5211 48.4131 53.4539 47.7201 52.2492 47.4683C51.1122 47.2752 49.9899 47.3484 48.929 47.674C48.2473 47.9326 47.6613 48.3333 47.2003 48.8352C47.0895 48.2148 46.9976 47.678 46.9198 47.1917C46.6646 45.0737 46.1145 42.9578 45.2902 40.9434C44.7323 39.2356 43.6068 37.6791 42.0972 36.5645C40.1588 35.6712 38.1367 36.0134 36.7582 37.31L36.5297 37.6127C35.5292 39.5474 35.2175 41.7652 35.6459 43.9008C35.843 45.3458 36.1308 46.8465 36.4968 48.3291C36.6663 48.9689 36.6671 48.972 37.0258 50.4753L37.1187 50.8619C37.2408 51.3647 37.3476 51.7797 37.4654 52.2019C37.6669 52.9195 37.7448 53.1974 37.812 53.4466L37.8519 53.5957C37.9755 54.062 38.0971 54.5644 38.2921 55.4196C38.471 56.2086 38.6285 57.0013 38.7798 57.8623C38.3291 57.3411 37.8473 56.838 37.3403 56.3605C36.0958 55.1247 34.489 54.2677 32.7405 53.9165C30.1004 53.6157 27.7404 55.266 27.1358 57.7538C26.7855 59.0481 26.9972 60.4596 27.7269 61.6188C28.073 62.2776 28.7438 63.1828 29.936 64.6604L30.1215 64.8898C31.5053 66.5983 31.7543 66.9053 31.9847 67.2256C32.0412 67.3042 32.0966 67.3836 32.1673 67.4846C32.6015 68.1325 33.3629 69.3882 34.097 70.5991C34.9178 71.9529 35.7046 73.2506 35.9623 73.5803L38.4823 76.4603C38.8119 76.7649 39.6866 77.5928 40.2868 78.1608C40.5828 78.4409 40.812 78.6578 40.8762 78.7177C41.1669 78.9889 41.4337 79.2337 41.6898 79.4634C41.769 79.5343 41.8086 79.5697 41.8483 79.605C41.8879 79.6401 41.9275 79.675 42.0067 79.7448C42.1859 79.9022 42.3363 80.2959 42.3993 80.8711C42.4527 81.3592 42.4381 81.9036 42.3799 82.426C42.3607 82.5982 42.3423 82.7218 42.3318 82.7802C42.2076 83.4702 42.7379 84.1045 43.439 84.1045C44.2464 84.1045 45.08 84.1176 46.4051 84.1472L46.8623 84.1575C50.452 84.2392 51.7977 84.2392 52.9924 84.0965C54.3577 83.9359 55.8101 82.2383 57.0424 80.1519C58.0904 82.0879 59.4364 83.7796 60.8779 84.0014C62.2359 84.1462 63.552 84.1462 64.8572 84.0082C65.545 83.9355 66.005 83.2653 65.8254 82.5974C65.6094 81.7939 65.5013 80.9652 65.504 80.1331C65.4795 79.1858 65.5709 78.2724 65.7755 77.3811C66.5636 75.7228 67.7046 73.9873 69.0855 72.4517C70.1451 70.9273 70.9179 69.3925 71.4731 67.7746C71.8906 65.8716 72.139 64.071 72.2518 62.2594ZM42.0042 76.6883C41.4188 76.1346 40.396 75.1673 40.083 74.8846L37.6819 72.1288C37.5062 71.8905 36.935 70.9448 36.2715 69.8464C35.4827 68.5405 34.5634 67.0186 34.0234 66.2131C33.7731 65.855 33.4642 65.4513 33.0427 64.9233C32.8789 64.718 32.7619 64.573 32.4683 64.2107L31.8699 63.4736L31.6871 63.2475C30.5931 61.8917 29.9671 61.047 29.6727 60.4922C29.2361 59.7927 29.1215 59.0287 29.315 58.313C29.6593 56.8982 30.975 55.9781 32.3934 56.1374C33.6138 56.3869 34.8235 57.0321 35.7764 57.9779C36.5267 58.6851 37.1974 59.4313 37.8026 60.2293C37.9904 60.4647 38.1085 60.6227 38.2942 60.8829C38.6136 61.331 38.7048 61.4556 38.953 61.7728C38.9707 61.7954 39.0185 61.8601 39.0815 61.9454C39.2549 62.1802 39.5438 62.5713 39.6392 62.6725C39.7565 62.8217 39.7565 62.8217 40.3548 63.0669C41.6387 62.5939 41.6458 62.5833 41.6832 61.9803C41.6979 61.7432 41.657 61.5311 41.5565 61.1516C41.2137 58.6449 40.9098 56.79 40.4861 54.9208C40.2854 54.0407 40.1581 53.5145 40.0268 53.0192L39.9843 52.8602C39.9137 52.5989 39.8324 52.3087 39.6326 51.5971C39.5224 51.2023 39.4217 50.8109 39.3052 50.3309L39.2143 49.9531C38.8498 48.4253 38.8482 48.4186 38.6764 47.771C38.3341 46.3838 38.0612 44.9605 37.8634 43.5259C37.538 41.8937 37.7441 40.2658 38.4368 38.8293C39.1474 38.2539 40.1264 38.1204 40.9708 38.4969C41.8947 39.2119 42.7403 40.3812 43.1801 41.7205C43.9558 43.6235 44.4551 45.5436 44.6921 47.5045C44.8222 48.3228 44.9794 49.2149 45.1895 50.352L45.283 50.8556C46.1062 55.2719 46.1118 55.3034 46.1246 55.6869C46.1737 57.1613 48.374 57.1247 48.374 55.6495C48.374 55.3245 48.3677 55.1501 48.3263 54.1751C48.3102 53.7905 48.3038 53.6266 48.2966 53.4019C48.2646 52.4059 48.2805 51.7283 48.3521 51.3701C48.4893 50.6485 48.9835 50.0585 49.6597 49.8007C50.3149 49.6023 51.0828 49.5522 51.8315 49.6787C52.4442 49.8077 53.0248 50.1847 53.4167 50.7277C53.9304 52.1138 54.2894 53.8429 54.3445 55.5948C54.3898 57.0352 56.5225 57.0536 56.5926 55.6142C56.6653 54.1238 56.9126 52.6473 57.3295 51.215C57.673 50.7927 58.1418 50.4878 58.6704 50.3461C59.4393 50.2093 60.3186 50.2092 61.1766 50.3661C61.6193 50.526 62.1415 50.9023 62.5197 51.4055C62.9663 52.6296 63.3248 54.1955 63.4367 55.7883C63.4293 55.7862 63.4232 55.7844 63.4198 55.7867C63.4032 55.7978 63.4507 55.9045 63.7284 56.5293C64.8715 56.7276 65.2185 56.7879 65.3853 56.642C65.4579 56.5784 65.4964 56.4757 65.5516 56.3281L65.5516 56.328C65.6293 56.1698 65.6293 56.1697 65.6513 56.1025C65.679 56.0205 65.7081 55.911 65.7593 55.7127C65.8712 55.2885 65.9742 54.9581 66.108 54.6339C66.1953 54.422 66.2873 54.2379 66.3814 54.0882C66.7098 53.2113 67.2482 52.7369 67.9074 52.6042C68.5667 52.4714 69.2467 52.7005 69.6913 53.205C70.1359 53.7096 70.2775 54.413 70.0628 55.0503L70.004 55.4095V62.1895C69.9003 63.819 69.6673 65.5082 69.3091 67.1728C68.8559 68.4691 68.1754 69.8208 67.3219 71.0621C65.88 72.6514 64.6138 74.5773 63.6568 76.6597C63.3356 77.9534 63.2254 79.0558 63.2544 80.159C63.2523 80.7186 63.2935 81.2874 63.3772 81.8546C62.64 81.8763 61.9016 81.8483 61.1672 81.7707C60.8023 81.7133 59.6873 80.3119 59.0382 79.1137C58.6722 78.3789 57.8875 77.8936 57.029 77.8936C56.1705 77.8936 55.3858 78.3789 55.0024 79.147C54.2578 80.4288 53.0655 81.8224 52.7275 81.8622C51.6869 81.9864 50.3571 81.9864 46.9134 81.9081L46.4553 81.8977C45.7483 81.882 45.1786 81.8708 44.6765 81.8638C44.6914 81.4498 44.6805 81.0335 44.6359 80.6262C44.5175 79.5452 44.1784 78.6575 43.4912 78.0541C43.4172 77.9888 43.3799 77.9559 43.3428 77.923C43.3052 77.8896 43.2677 77.8561 43.1924 77.7887C42.9481 77.5695 42.6917 77.3343 42.411 77.0724C42.3648 77.0294 42.2121 76.8849 42.0042 76.6883Z" fill="black"/>
<path id="Shape_3" d="M62.25 74.4777V64.1223C62.25 63.5025 61.7463 63 61.125 63C60.5037 63 60 63.5025 60 64.1223V74.4777C60 75.0975 60.5037 75.6 61.125 75.6C61.7463 75.6 62.25 75.0975 62.25 74.4777Z" fill="black"/>
<path id="Shape_4" d="M56.31 74.4739L56.25 64.1132C56.2464 63.4948 55.7398 62.9965 55.1185 63C54.4972 63.0036 53.9964 63.5078 54 64.1261L54.06 74.4868C54.0636 75.1051 54.5702 75.6035 55.1915 75.6C55.8128 75.5964 56.3136 75.0922 56.31 74.4739Z" fill="black"/>
<path id="Shape_5" d="M48 64.137L48.06 74.4762C48.0636 75.1005 48.5703 75.6036 49.1916 75.6C49.8129 75.5963 50.3136 75.0873 50.31 74.463L50.25 64.1238C50.2464 63.4995 49.7398 62.9964 49.1184 63C48.4971 63.0037 47.9964 63.5127 48 64.137Z" fill="black"/>
</g>
</g>
<defs>
<filter id="filter0_d_1183_19255" x="24.5707" y="36.0659" width="50.2395" height="53.5465" filterUnits="userSpaceOnUse" color-interpolation-filters="sRGB">
<feFlood flood-opacity="0" result="BackgroundImageFix"/>
<feColorMatrix in="SourceAlpha" type="matrix" values="0 0 0 0 0 0 0 0 0 0 0 0 0 0 0 0 0 0 127 0" result="hardAlpha"/>
<feOffset dy="1"/>
<feGaussianBlur stdDeviation="0.4"/>
<feColorMatrix type="matrix" values="0 0 0 0 0 0 0 0 0 0 0 0 0 0 0 0 0 0 0.5 0"/>
<feBlend mode="normal" in2="BackgroundImageFix" result="effect1_dropShadow_1183_19255"/>
<feBlend mode="normal" in="SourceGraphic" in2="effect1_dropShadow_1183_19255" result="shape"/>
</filter>
</defs>
</svg>
