<svg width="102" height="138" viewBox="0 0 102 138" fill="none" xmlns="http://www.w3.org/2000/svg">
<g id="pointer">
<g id="pointing" filter="url(#filter0_d_1183_20049)">
<path id="Shape" d="M36.8111 72.84C35.9711 71.76 34.9211 69.57 33.0911 66.84C32.0411 65.34 29.4611 62.49 28.6811 61.02C28.1188 60.1267 27.9556 59.0389 28.2311 58.02C28.702 56.0826 30.5398 54.7974 32.5211 55.02C34.0535 55.3278 35.4618 56.0789 36.5711 57.18C37.3456 57.9095 38.0581 58.7022 38.7011 59.55C39.1811 60.15 39.3011 60.39 39.8411 61.08C40.3811 61.77 40.7411 62.46 40.4711 61.44C40.2611 59.94 39.9011 57.42 39.3911 55.17C39.0011 53.46 38.9111 53.19 38.5511 51.9C38.1911 50.61 37.9811 49.53 37.5911 48.06C37.2346 46.6157 36.9542 45.1537 36.7511 43.68C36.3729 41.7951 36.648 39.8376 37.5311 38.13C38.5793 37.1441 40.1169 36.8839 41.4311 37.47C42.7529 38.446 43.7384 39.8089 44.2511 41.37C45.0373 43.2911 45.562 45.3092 45.8111 47.37C46.2911 50.37 47.2211 54.75 47.2511 55.65C47.2511 54.54 47.0411 52.2 47.2511 51.15C47.4591 50.0553 48.22 49.1469 49.2611 48.75C50.1545 48.4758 51.0996 48.4142 52.0211 48.57C52.9512 48.7644 53.7751 49.2994 54.3311 50.07C55.0261 51.8201 55.4119 53.6778 55.4711 55.56C55.5514 53.9117 55.8335 52.2796 56.3111 50.7C56.8124 49.9936 57.5445 49.4843 58.3811 49.26C59.3729 49.0786 60.3893 49.0786 61.3811 49.26C62.1944 49.5319 62.9058 50.0445 63.4211 50.73C64.0564 52.321 64.441 54.001 64.5611 55.71C64.5611 56.13 64.7711 54.54 65.4311 53.49C65.7741 52.4718 66.6342 51.7139 67.6875 51.5018C68.7407 51.2897 69.8272 51.6557 70.5375 52.4618C71.2478 53.2679 71.4741 54.3918 71.1311 55.41C71.1311 57.36 71.1311 57.27 71.1311 58.59C71.1311 59.91 71.1311 61.08 71.1311 62.19C71.0218 63.9455 70.7811 65.6904 70.4111 67.41C69.889 68.9313 69.1623 70.3746 68.2511 71.7C66.7944 73.3199 65.5908 75.1505 64.6811 77.13C64.4554 78.1134 64.3546 79.1213 64.3811 80.13C64.3781 81.0619 64.4991 81.99 64.7411 82.89C63.5145 83.0196 62.2777 83.0196 61.0511 82.89C59.8811 82.71 58.4411 80.37 58.0511 79.65C57.8581 79.2634 57.4632 79.0191 57.0311 79.0191C56.599 79.0191 56.204 79.2634 56.0111 79.65C55.3511 80.79 53.8811 82.86 52.8611 82.98C50.8511 83.22 46.7111 82.98 43.4411 82.98C43.4411 82.98 43.9811 79.98 42.7511 78.9C41.5211 77.82 40.2611 76.56 39.3311 75.72L36.8111 72.84Z" fill="white"/>
<path id="Shape_2" fill-rule="evenodd" clip-rule="evenodd" d="M72.2533 62.2599C72.2554 60.495 72.2554 60.495 72.2554 58.59V55.5795C72.6385 54.232 72.313 52.776 71.3809 51.7181C70.4049 50.6104 68.9121 50.1076 67.4648 50.399C66.4787 50.5975 65.6158 51.1442 65.0169 51.915C64.8588 51.3716 64.6748 50.8377 64.4652 50.3128C63.6674 49.1863 62.7667 48.5373 61.7371 48.1931C60.4572 47.9476 59.3037 47.9476 58.1781 48.1534C57.0518 48.4518 56.1311 49.0707 55.4818 49.9278C55.4473 49.8366 55.412 49.7455 55.376 49.6548C54.5226 48.4136 53.4554 47.7207 52.2507 47.4688C51.1137 47.2758 49.9914 47.349 48.9304 47.6745C48.2487 47.9332 47.6628 48.3339 47.2018 48.8357C47.0909 48.2154 46.9991 47.6785 46.9213 47.1923C46.6661 45.0742 46.116 42.9583 45.2916 40.9439C44.7337 39.2362 43.6082 37.6797 42.0987 36.565C40.1603 35.6718 38.1381 36.014 36.7597 37.3105L36.5311 37.6133C35.5307 39.548 35.219 41.7658 35.6474 43.9013C35.8445 45.3463 36.1323 46.8471 36.4982 48.3296C36.6678 48.9694 36.6685 48.9726 37.0272 50.4758L37.1202 50.8625C37.2423 51.3653 37.349 51.7803 37.4668 52.2024C37.6684 52.9201 37.7462 53.1979 37.8135 53.4472L37.8534 53.5963C37.977 54.0625 38.0985 54.5649 38.2936 55.4202C38.4724 56.2091 38.63 57.0019 38.7813 57.8629C38.3306 57.3417 37.8488 56.8386 37.3418 56.3611C36.0972 55.1252 34.4904 54.2683 32.742 53.9171C30.1018 53.6163 27.7419 55.2666 27.1373 57.7543C26.787 59.0487 26.9987 60.4601 27.7283 61.6193C28.0745 62.2782 28.7453 63.1834 29.9375 64.6609L30.123 64.8904C31.5068 66.5989 31.7558 66.9058 31.9862 67.2262C32.0427 67.3047 32.0981 67.3841 32.1688 67.4852C32.603 68.1331 33.3643 69.3888 34.0985 70.5997C34.9193 71.9534 35.7061 73.2512 35.9638 73.5808L38.4838 76.4608C38.8133 76.7655 39.6881 77.5933 40.2883 78.1614C40.5843 78.4415 40.8135 78.6584 40.8776 78.7182C41.1684 78.9894 41.4352 79.2343 41.6912 79.464C41.7705 79.5349 41.8101 79.5703 41.8498 79.6055C41.8893 79.6406 41.929 79.6756 42.0082 79.7454C42.1873 79.9027 42.3378 80.2965 42.4007 80.8717C42.4542 81.3597 42.4395 81.9042 42.3814 82.4266C42.3622 82.5988 42.3437 82.7224 42.3332 82.7807C42.209 83.4707 42.7393 84.105 43.4404 84.105C44.2479 84.105 45.0815 84.1181 46.4066 84.1477L46.8637 84.1581C50.4535 84.2397 51.7992 84.2397 52.9938 84.0971C54.3592 83.9365 55.8116 82.2389 57.0439 80.1524C58.0918 82.0885 59.4379 83.7802 60.8794 84.0019C62.2374 84.1468 63.5535 84.1468 64.8587 84.0088C65.5465 83.9361 66.0064 83.2658 65.8269 82.5979C65.6108 81.7944 65.5027 80.9657 65.5054 80.1337C65.481 79.1864 65.5724 78.2729 65.7769 77.3817C66.5651 75.7233 67.7061 73.9879 69.087 72.4522C70.1465 70.9279 70.9193 69.3931 71.4745 67.7752C71.8921 65.8722 72.1405 64.0716 72.2533 62.2599ZM42.0056 76.6888C41.4203 76.1352 40.3975 75.1679 40.0845 74.8852L37.6834 72.1294C37.5077 71.8911 36.9364 70.9454 36.273 69.847C35.4841 68.541 34.5649 67.0192 34.0249 66.2136C33.7745 65.8556 33.4657 65.4519 33.0442 64.9238C32.8804 64.7186 32.7634 64.5736 32.4698 64.2113L31.8714 63.4742L31.6886 63.2481C30.5946 61.8922 29.9686 61.0475 29.6742 60.4927C29.2376 59.7933 29.123 59.0293 29.3165 58.3136C29.6607 56.8987 30.9764 55.9787 32.3949 56.138C33.6152 56.3874 34.825 57.0326 35.7779 57.9785C36.5282 58.6857 37.1988 59.4319 37.8041 60.2299C37.9919 60.4652 38.1099 60.6233 38.2956 60.8834C38.6151 61.3315 38.7062 61.4561 38.9545 61.7734C38.9722 61.7959 39.0199 61.8606 39.083 61.946C39.2564 62.1807 39.5453 62.5719 39.6406 62.673C39.758 62.8223 39.758 62.8223 40.3563 63.0675C41.6401 62.5944 41.6473 62.5838 41.6847 61.9808C41.6994 61.7438 41.6584 61.5317 41.558 61.1521C41.2152 58.6454 40.9113 56.7905 40.4876 54.9213C40.2869 54.0413 40.1596 53.515 40.0283 53.0198L39.9857 52.8607C39.9152 52.5995 39.8339 52.3093 39.634 51.5976C39.5239 51.2029 39.4232 50.8115 39.3066 50.3315L39.2158 49.9537C38.8513 48.4258 38.8496 48.4192 38.6778 47.7715C38.3356 46.3844 38.0626 44.9611 37.8649 43.5264C37.5395 41.8942 37.7455 40.2664 38.4383 38.8298C39.1489 38.2544 40.1279 38.1209 40.9722 38.4975C41.8962 39.2124 42.7417 40.3817 43.1816 41.7211C43.9573 43.6241 44.4565 45.5442 44.6936 47.505C44.8237 48.3234 44.9809 49.2154 45.191 50.3525L45.2845 50.8562C46.1076 55.2724 46.1133 55.3039 46.1261 55.6875C46.1752 57.1619 48.3754 57.1252 48.3754 55.65C48.3754 55.3251 48.3691 55.1507 48.3278 54.1757C48.3116 53.7911 48.3052 53.6271 48.298 53.4025C48.266 52.4064 48.2819 51.7288 48.3536 51.3706C48.4908 50.6491 48.985 50.059 49.6612 49.8012C50.3163 49.6028 51.0842 49.5527 51.8329 49.6793C52.4457 49.8082 53.0263 50.1853 53.4181 50.7283C53.9318 52.1143 54.2909 53.8434 54.346 55.5954C54.3913 57.0357 56.5239 57.0541 56.5941 55.6148C56.6667 54.1244 56.9141 52.6479 57.3309 51.2155C57.6745 50.7932 58.1433 50.4884 58.6719 50.3466C59.4408 50.2098 60.3201 50.2098 61.1781 50.3667C61.6207 50.5266 62.1429 50.9029 62.5212 51.406C62.9678 52.6302 63.3263 54.196 63.4382 55.7889C63.4308 55.7867 63.4247 55.785 63.4213 55.7872C63.4047 55.7983 63.4522 55.9051 63.7298 56.5298C64.8729 56.7282 65.22 56.7884 65.3867 56.6426C65.4594 56.579 65.4978 56.4762 65.553 56.3287L65.5531 56.3285C65.6308 56.1703 65.6308 56.1703 65.6528 56.103C65.6804 56.0211 65.7096 55.9115 65.7607 55.7132C65.8727 55.289 65.9757 54.9587 66.1094 54.6344C66.1968 54.4225 66.2888 54.2385 66.3829 54.0887C66.7112 53.2118 67.2496 52.7375 67.9089 52.6047C68.5681 52.472 69.2481 52.701 69.6927 53.2056C70.1373 53.7102 70.279 54.4136 70.0643 55.0509L70.0054 55.41V62.19C69.9018 63.8196 69.6688 65.5087 69.3106 67.1734C68.8574 68.4697 68.1768 69.8213 67.3234 71.0627C65.8815 72.6519 64.6153 74.5778 63.6582 76.6602C63.3371 77.9539 63.2268 79.0564 63.2558 80.1596C63.2537 80.7192 63.2949 81.2879 63.3787 81.8552C62.6414 81.8769 61.9031 81.8489 61.1687 81.7713C60.8038 81.7138 59.6887 80.3125 59.0396 79.1142C58.6736 78.3795 57.8889 77.8941 57.0304 77.8941C56.1719 77.8941 55.3872 78.3795 55.0039 79.1476C54.2593 80.4294 53.067 81.823 52.729 81.8627C51.6883 81.987 50.3585 81.987 46.9149 81.9086L46.4568 81.8983C45.7498 81.8825 45.1801 81.8713 44.678 81.8643C44.6928 81.4504 44.682 81.034 44.6374 80.6267C44.519 79.5458 44.1799 78.658 43.4927 78.0546C43.4186 77.9893 43.3814 77.9565 43.3442 77.9235C43.3066 77.8902 43.2692 77.8567 43.1938 77.7893C42.9495 77.5701 42.6932 77.3349 42.4125 77.073C42.3663 77.0299 42.2135 76.8854 42.0056 76.6888Z" fill="black"/>
<path id="Shape_3" d="M62.25 74.4777V64.1223C62.25 63.5025 61.7463 63 61.125 63C60.5037 63 60 63.5025 60 64.1223V74.4777C60 75.0975 60.5037 75.6 61.125 75.6C61.7463 75.6 62.25 75.0975 62.25 74.4777Z" fill="black"/>
<path id="Shape_4" d="M56.31 74.4739L56.25 64.1132C56.2464 63.4948 55.7398 62.9965 55.1185 63C54.4972 63.0036 53.9964 63.5078 54 64.1261L54.06 74.4868C54.0636 75.1051 54.5702 75.6035 55.1915 75.6C55.8128 75.5964 56.3136 75.0922 56.31 74.4739Z" fill="black"/>
<path id="Shape_5" d="M48 64.137L48.06 74.4762C48.0636 75.1005 48.5703 75.6036 49.1916 75.6C49.8129 75.5963 50.3136 75.0873 50.31 74.463L50.25 64.1238C50.2464 63.4995 49.7398 62.9964 49.1184 63C48.4971 63.0037 47.9964 63.5127 48 64.137Z" fill="black"/>
</g>
</g>
<defs>
<filter id="filter0_d_1183_20049" x="24.5722" y="36.0665" width="50.2409" height="53.5469" filterUnits="userSpaceOnUse" color-interpolation-filters="sRGB">
<feFlood flood-opacity="0" result="BackgroundImageFix"/>
<feColorMatrix in="SourceAlpha" type="matrix" values="0 0 0 0 0 0 0 0 0 0 0 0 0 0 0 0 0 0 127 0" result="hardAlpha"/>
<feOffset dy="1"/>
<feGaussianBlur stdDeviation="0.4"/>
<feColorMatrix type="matrix" values="0 0 0 0 0 0 0 0 0 0 0 0 0 0 0 0 0 0 0.5 0"/>
<feBlend mode="normal" in2="BackgroundImageFix" result="effect1_dropShadow_1183_20049"/>
<feBlend mode="normal" in="SourceGraphic" in2="effect1_dropShadow_1183_20049" result="shape"/>
</filter>
</defs>
</svg>
