<svg width="102" height="138" viewBox="0 0 102 138" fill="none" xmlns="http://www.w3.org/2000/svg">
<g id="pointer">
<g id="pointing" filter="url(#filter0_d_1183_18796)">
<path id="Shape" d="M36.8096 72.8405C35.9696 71.7605 34.9196 69.5705 33.0896 66.8405C32.0396 65.3405 29.4596 62.4905 28.6796 61.0205C28.1173 60.1272 27.9542 59.0395 28.2296 58.0205C28.7005 56.0831 30.5383 54.798 32.5196 55.0205C34.052 55.3283 35.4603 56.0794 36.5696 57.1805C37.3442 57.91 38.0566 58.7028 38.6996 59.5505C39.1796 60.1505 39.2996 60.3905 39.8396 61.0805C40.3796 61.7705 40.7396 62.4605 40.4696 61.4405C40.2596 59.9405 39.8996 57.4205 39.3896 55.1705C38.9996 53.4605 38.9096 53.1905 38.5496 51.9005C38.1896 50.6105 37.9796 49.5305 37.5896 48.0605C37.2331 46.6162 36.9527 45.1542 36.7496 43.6805C36.3715 41.7956 36.6466 39.8382 37.5296 38.1305C38.5778 37.1446 40.1154 36.8844 41.4296 37.4705C42.7514 38.4465 43.7369 39.8095 44.2496 41.3705C45.0358 43.2917 45.5605 45.3097 45.8096 47.3705C46.2896 50.3705 47.2196 54.7505 47.2496 55.6505C47.2496 54.5405 47.0396 52.2005 47.2496 51.1505C47.4577 50.0559 48.2185 49.1475 49.2596 48.7505C50.153 48.4764 51.0982 48.4148 52.0196 48.5705C52.9497 48.765 53.7736 49.3 54.3296 50.0705C55.0247 51.8207 55.4104 53.6783 55.4696 55.5605C55.55 53.9123 55.8321 52.2801 56.3096 50.7005C56.8109 49.9942 57.543 49.4849 58.3796 49.2605C59.3714 49.0792 60.3878 49.0792 61.3796 49.2605C62.1929 49.5324 62.9043 50.0451 63.4196 50.7305C64.0549 52.3216 64.4395 54.0015 64.5596 55.7105C64.5596 56.1305 64.7696 54.5405 65.4296 53.4905C65.7726 52.4723 66.6327 51.7144 67.686 51.5023C68.7393 51.2903 69.8257 51.6562 70.536 52.4623C71.2463 53.2685 71.4726 54.3923 71.1296 55.4105C71.1296 57.3605 71.1296 57.2705 71.1296 58.5905C71.1296 59.9105 71.1296 61.0805 71.1296 62.1905C71.0203 63.9461 70.7796 65.6909 70.4096 67.4105C69.8875 68.9319 69.1609 70.3751 68.2496 71.7005C66.793 73.3204 65.5894 75.1511 64.6796 77.1305C64.4539 78.1139 64.3531 79.1219 64.3796 80.1305C64.3766 81.0624 64.4977 81.9906 64.7396 82.8905C63.513 83.0202 62.2762 83.0202 61.0496 82.8905C59.8796 82.7105 58.4396 80.3705 58.0496 79.6505C57.8567 79.2639 57.4617 79.0196 57.0296 79.0196C56.5975 79.0196 56.2026 79.2639 56.0096 79.6505C55.3496 80.7905 53.8796 82.8605 52.8596 82.9805C50.8496 83.2205 46.7096 82.9805 43.4396 82.9805C43.4396 82.9805 43.9796 79.9805 42.7496 78.9005C41.5196 77.8205 40.2596 76.5605 39.3296 75.7205L36.8096 72.8405Z" fill="white"/>
<path id="Shape_2" fill-rule="evenodd" clip-rule="evenodd" d="M72.2518 62.2601C72.254 60.4952 72.254 60.4952 72.254 58.5902V55.5797C72.6371 54.2322 72.3116 52.7761 71.3794 51.7183C70.4034 50.6106 68.9106 50.1077 67.4633 50.3992C66.4772 50.5977 65.6143 51.1444 65.0155 51.9152C64.8574 51.3718 64.6733 50.8379 64.4638 50.313C63.6659 49.1865 62.7653 48.5375 61.7357 48.1932C60.4557 47.9478 59.3022 47.9478 58.1766 48.1535C57.0503 48.452 56.1296 49.0709 55.4803 49.928C55.4458 49.8367 55.4106 49.7457 55.3745 49.655C54.5211 48.4138 53.4539 47.7209 52.2492 47.469C51.1122 47.276 49.9899 47.3492 48.929 47.6747C48.2473 47.9334 47.6613 48.334 47.2003 48.8359C47.0895 48.2155 46.9976 47.6787 46.9198 47.1925C46.6646 45.0744 46.1145 42.9585 45.2902 40.9441C44.7323 39.2364 43.6068 37.6798 42.0972 36.5652C40.1588 35.6719 38.1367 36.0142 36.7582 37.3107L36.5297 37.6135C35.5292 39.5482 35.2175 41.7659 35.6459 43.9015C35.843 45.3465 36.1308 46.8473 36.4968 48.3298C36.6663 48.9696 36.6671 48.9727 37.0258 50.476L37.1187 50.8626C37.2408 51.3655 37.3476 51.7804 37.4654 52.2026C37.6669 52.9202 37.7448 53.1981 37.812 53.4473L37.8519 53.5965C37.9755 54.0627 38.0971 54.5651 38.2921 55.4204C38.471 56.2093 38.6285 57.002 38.7798 57.8631C38.3291 57.3419 37.8473 56.8388 37.3403 56.3613C36.0958 55.1254 34.489 54.2685 32.7405 53.9172C30.1004 53.6165 27.7404 55.2667 27.1358 57.7545C26.7855 59.0489 26.9972 60.4603 27.7269 61.6195C28.073 62.2784 28.7438 63.1836 29.936 64.6611L30.1215 64.8905C31.5053 66.599 31.7543 66.906 31.9847 67.2264C32.0412 67.3049 32.0966 67.3843 32.1673 67.4853C32.6015 68.1333 33.3629 69.389 34.097 70.5999C34.9178 71.9536 35.7046 73.2513 35.9623 73.581L38.4823 76.461C38.8119 76.7657 39.6866 77.5935 40.2868 78.1616C40.5828 78.4416 40.812 78.6586 40.8762 78.7184C41.1669 78.9896 41.4337 79.2345 41.6898 79.4642C41.769 79.5351 41.8086 79.5705 41.8483 79.6057C41.8879 79.6408 41.9275 79.6758 42.0067 79.7456C42.1859 79.9029 42.3363 80.2966 42.3993 80.8719C42.4527 81.3599 42.4381 81.9044 42.3799 82.4267C42.3607 82.5989 42.3423 82.7225 42.3318 82.7809C42.2076 83.4709 42.7379 84.1052 43.439 84.1052C44.2464 84.1052 45.08 84.1183 46.4051 84.1479L46.8623 84.1582C50.452 84.2399 51.7977 84.2399 52.9924 84.0973C54.3577 83.9366 55.8101 82.239 57.0424 80.1526C58.0904 82.0887 59.4364 83.7804 60.8779 84.0021C62.2359 84.1469 63.552 84.1469 64.8572 84.009C65.545 83.9363 66.005 83.266 65.8254 82.5981C65.6094 81.7946 65.5013 80.9659 65.504 80.1338C65.4795 79.1866 65.5709 78.2731 65.7755 77.3819C66.5636 75.7235 67.7046 73.9881 69.0855 72.4524C70.1451 70.9281 70.9179 69.3932 71.4731 67.7754C71.8906 65.8723 72.139 64.0717 72.2518 62.2601ZM42.0042 76.689C41.4188 76.1354 40.396 75.168 40.083 74.8853L37.6819 72.1296C37.5062 71.8913 36.935 70.9456 36.2715 69.8471C35.4827 68.5412 34.5634 67.0194 34.0234 66.2138C33.7731 65.8557 33.4642 65.4521 33.0427 64.924C32.8789 64.7188 32.7619 64.5737 32.4683 64.2115L31.8699 63.4744L31.6871 63.2483C30.5931 61.8924 29.9671 61.0477 29.6727 60.4929C29.2361 59.7935 29.1215 59.0295 29.315 58.3138C29.6593 56.8989 30.975 55.9788 32.3934 56.1382C33.6138 56.3876 34.8235 57.0328 35.7764 57.9787C36.5267 58.6858 37.1974 59.4321 37.8026 60.2301C37.9904 60.4654 38.1085 60.6235 38.2942 60.8836C38.6136 61.3317 38.7048 61.4563 38.953 61.7735C38.9707 61.7961 39.0185 61.8608 39.0815 61.9461C39.2549 62.1809 39.5438 62.572 39.6392 62.6732C39.7565 62.8225 39.7565 62.8225 40.3548 63.0676C41.6387 62.5946 41.6458 62.584 41.6832 61.981C41.6979 61.744 41.657 61.5319 41.5565 61.1523C41.2137 58.6456 40.9098 56.7907 40.4861 54.9215C40.2854 54.0414 40.1581 53.5152 40.0268 53.02L39.9843 52.8609C39.9137 52.5996 39.8324 52.3094 39.6326 51.5978C39.5224 51.2031 39.4217 50.8116 39.3052 50.3317L39.2143 49.9538C38.8498 48.426 38.8482 48.4194 38.6764 47.7717C38.3341 46.3846 38.0612 44.9613 37.8634 43.5266C37.538 41.8944 37.7441 40.2666 38.4368 38.83C39.1474 38.2546 40.1264 38.1211 40.9708 38.4977C41.8947 39.2126 42.7403 40.3819 43.1801 41.7212C43.9558 43.6243 44.4551 45.5444 44.6921 47.5052C44.8222 48.3236 44.9794 49.2156 45.1895 50.3527L45.283 50.8563C46.1062 55.2726 46.1118 55.3041 46.1246 55.6877C46.1737 57.1621 48.374 57.1254 48.374 55.6502C48.374 55.3252 48.3677 55.1509 48.3263 54.1758C48.3102 53.7912 48.3038 53.6273 48.2966 53.4027C48.2646 52.4066 48.2805 51.729 48.3521 51.3708C48.4893 50.6493 48.9835 50.0592 49.6597 49.8014C50.3149 49.603 51.0828 49.5529 51.8315 49.6795C52.4442 49.8084 53.0248 50.1854 53.4167 50.7285C53.9304 52.1145 54.2894 53.8436 54.3445 55.5956C54.3898 57.0359 56.5225 57.0543 56.5926 55.615C56.6653 54.1246 56.9126 52.648 57.3295 51.2157C57.673 50.7934 58.1418 50.4886 58.6704 50.3468C59.4393 50.21 60.3186 50.21 61.1766 50.3669C61.6193 50.5267 62.1415 50.903 62.5197 51.4062C62.9663 52.6303 63.3248 54.1962 63.4367 55.7891C63.4293 55.7869 63.4232 55.7851 63.4198 55.7874C63.4032 55.7985 63.4507 55.9053 63.7284 56.53C64.8715 56.7284 65.2185 56.7886 65.3853 56.6427C65.4579 56.5792 65.4964 56.4764 65.5516 56.3289L65.5516 56.3287C65.6293 56.1705 65.6293 56.1705 65.6513 56.1032C65.679 56.0212 65.7081 55.9117 65.7593 55.7134C65.8712 55.2892 65.9742 54.9589 66.108 54.6346C66.1953 54.4227 66.2873 54.2387 66.3814 54.0889C66.7098 53.212 67.2482 52.7376 67.9074 52.6049C68.5667 52.4722 69.2467 52.7012 69.6913 53.2058C70.1359 53.7103 70.2775 54.4138 70.0628 55.0511L70.004 55.4102V62.1902C69.9003 63.8197 69.6673 65.5089 69.3091 67.1735C68.8559 68.4699 68.1754 69.8215 67.3219 71.0628C65.88 72.6521 64.6138 74.578 63.6568 76.6604C63.3356 77.9541 63.2254 79.0566 63.2544 80.1598C63.2523 80.7194 63.2935 81.2881 63.3772 81.8553C62.64 81.877 61.9016 81.8491 61.1672 81.7714C60.8023 81.714 59.6873 80.3127 59.0382 79.1144C58.6722 78.3797 57.8875 77.8943 57.029 77.8943C56.1705 77.8943 55.3858 78.3797 55.0024 79.1478C54.2578 80.4295 53.0655 81.8231 52.7275 81.8629C51.6869 81.9872 50.3571 81.9872 46.9134 81.9088L46.4553 81.8985C45.7483 81.8827 45.1786 81.8715 44.6765 81.8645C44.6914 81.4506 44.6805 81.0342 44.6359 80.6269C44.5175 79.546 44.1784 78.6582 43.4912 78.0548C43.4172 77.9895 43.3799 77.9567 43.3428 77.9237C43.3052 77.8903 43.2677 77.8568 43.1924 77.7894C42.9481 77.5703 42.6917 77.335 42.411 77.0732C42.3648 77.0301 42.2121 76.8856 42.0042 76.689Z" fill="black"/>
<path id="Shape_3" d="M62.25 74.4777V64.1223C62.25 63.5025 61.7463 63 61.125 63C60.5037 63 60 63.5025 60 64.1223V74.4777C60 75.0975 60.5037 75.6 61.125 75.6C61.7463 75.6 62.25 75.0975 62.25 74.4777Z" fill="black"/>
<path id="Shape_4" d="M56.31 74.4739L56.25 64.1132C56.2464 63.4948 55.7398 62.9965 55.1185 63C54.4972 63.0036 53.9964 63.5078 54 64.1261L54.06 74.4868C54.0636 75.1051 54.5702 75.6035 55.1915 75.6C55.8128 75.5964 56.3136 75.0922 56.31 74.4739Z" fill="black"/>
<path id="Shape_5" d="M48 64.137L48.06 74.4762C48.0636 75.1005 48.5703 75.6036 49.1916 75.6C49.8129 75.5963 50.3136 75.0873 50.31 74.463L50.25 64.1238C50.2464 63.4995 49.7398 62.9964 49.1184 63C48.4971 63.0037 47.9964 63.5127 48 64.137Z" fill="black"/>
</g>
</g>
<defs>
<filter id="filter0_d_1183_18796" x="24.5707" y="36.0667" width="50.2395" height="53.5465" filterUnits="userSpaceOnUse" color-interpolation-filters="sRGB">
<feFlood flood-opacity="0" result="BackgroundImageFix"/>
<feColorMatrix in="SourceAlpha" type="matrix" values="0 0 0 0 0 0 0 0 0 0 0 0 0 0 0 0 0 0 127 0" result="hardAlpha"/>
<feOffset dy="1"/>
<feGaussianBlur stdDeviation="0.4"/>
<feColorMatrix type="matrix" values="0 0 0 0 0 0 0 0 0 0 0 0 0 0 0 0 0 0 0.5 0"/>
<feBlend mode="normal" in2="BackgroundImageFix" result="effect1_dropShadow_1183_18796"/>
<feBlend mode="normal" in="SourceGraphic" in2="effect1_dropShadow_1183_18796" result="shape"/>
</filter>
</defs>
</svg>
