<svg width="102" height="138" viewBox="0 0 102 138" fill="none" xmlns="http://www.w3.org/2000/svg">
<g id="pointer">
<g id="pointing" filter="url(#filter0_d_1183_18966)">
<path id="Shape" d="M36.8096 72.8398C35.9696 71.7598 34.9196 69.5698 33.0896 66.8398C32.0396 65.3398 29.4596 62.4898 28.6796 61.0198C28.1173 60.1265 27.9542 59.0388 28.2296 58.0198C28.7005 56.0824 30.5383 54.7972 32.5196 55.0198C34.052 55.3276 35.4603 56.0787 36.5696 57.1798C37.3442 57.9093 38.0566 58.702 38.6996 59.5498C39.1796 60.1498 39.2996 60.3898 39.8396 61.0798C40.3796 61.7698 40.7396 62.4598 40.4696 61.4398C40.2596 59.9398 39.8996 57.4198 39.3896 55.1698C38.9996 53.4598 38.9096 53.1898 38.5496 51.8998C38.1896 50.6098 37.9796 49.5298 37.5896 48.0598C37.2331 46.6155 36.9527 45.1535 36.7496 43.6798C36.3715 41.7949 36.6466 39.8374 37.5296 38.1298C38.5778 37.1439 40.1154 36.8837 41.4296 37.4698C42.7514 38.4458 43.7369 39.8087 44.2496 41.3698C45.0358 43.2909 45.5605 45.309 45.8096 47.3698C46.2896 50.3698 47.2196 54.7498 47.2496 55.6498C47.2496 54.5398 47.0396 52.1998 47.2496 51.1498C47.4577 50.0552 48.2185 49.1467 49.2596 48.7498C50.153 48.4757 51.0982 48.414 52.0196 48.5698C52.9497 48.7642 53.7736 49.2992 54.3296 50.0698C55.0247 51.82 55.4104 53.6776 55.4696 55.5598C55.55 53.9115 55.8321 52.2794 56.3096 50.6998C56.8109 49.9934 57.543 49.4842 58.3796 49.2598C59.3714 49.0784 60.3878 49.0784 61.3796 49.2598C62.1929 49.5317 62.9043 50.0443 63.4196 50.7298C64.0549 52.3208 64.4395 54.0008 64.5596 55.7098C64.5596 56.1298 64.7696 54.5398 65.4296 53.4898C65.7726 52.4716 66.6327 51.7137 67.686 51.5016C68.7393 51.2895 69.8257 51.6555 70.536 52.4616C71.2463 53.2677 71.4726 54.3916 71.1296 55.4098C71.1296 57.3598 71.1296 57.2698 71.1296 58.5898C71.1296 59.9098 71.1296 61.0798 71.1296 62.1898C71.0203 63.9453 70.7796 65.6902 70.4096 67.4098C69.8875 68.9311 69.1609 70.3744 68.2496 71.6998C66.793 73.3197 65.5894 75.1503 64.6796 77.1298C64.4539 78.1132 64.3531 79.1211 64.3796 80.1298C64.3766 81.0617 64.4977 81.9898 64.7396 82.8898C63.513 83.0195 62.2762 83.0195 61.0496 82.8898C59.8796 82.7098 58.4396 80.3698 58.0496 79.6498C57.8567 79.2632 57.4617 79.0189 57.0296 79.0189C56.5975 79.0189 56.2026 79.2632 56.0096 79.6498C55.3496 80.7898 53.8796 82.8598 52.8596 82.9798C50.8496 83.2198 46.7096 82.9798 43.4396 82.9798C43.4396 82.9798 43.9796 79.9798 42.7496 78.8998C41.5196 77.8198 40.2596 76.5598 39.3296 75.7198L36.8096 72.8398Z" fill="white"/>
<path id="Shape_2" fill-rule="evenodd" clip-rule="evenodd" d="M72.2518 62.2598C72.254 60.4948 72.254 60.4948 72.254 58.5898V55.5793C72.6371 54.2318 72.3116 52.7758 71.3794 51.7179C70.4034 50.6102 68.9106 50.1074 67.4633 50.3988C66.4772 50.5973 65.6143 51.144 65.0155 51.9148C64.8574 51.3714 64.6733 50.8375 64.4638 50.3126C63.6659 49.1861 62.7653 48.5371 61.7357 48.1929C60.4557 47.9474 59.3022 47.9474 58.1766 48.1532C57.0503 48.4516 56.1296 49.0705 55.4803 49.9277C55.4458 49.8364 55.4106 49.7454 55.3745 49.6546C54.5211 48.4135 53.4539 47.7205 52.2492 47.4686C51.1122 47.2756 49.9899 47.3488 48.929 47.6743C48.2473 47.933 47.6613 48.3337 47.2003 48.8355C47.0895 48.2152 46.9976 47.6783 46.9198 47.1921C46.6646 45.074 46.1145 42.9581 45.2902 40.9438C44.7323 39.236 43.6068 37.6795 42.0972 36.5648C40.1588 35.6716 38.1367 36.0138 36.7582 37.3104L36.5297 37.6131C35.5292 39.5478 35.2175 41.7656 35.6459 43.9011C35.843 45.3462 36.1308 46.8469 36.4968 48.3294C36.6663 48.9693 36.6671 48.9724 37.0258 50.4757L37.1187 50.8623C37.2408 51.3651 37.3476 51.7801 37.4654 52.2022C37.6669 52.9199 37.7448 53.1978 37.812 53.447L37.8519 53.5961C37.9755 54.0623 38.0971 54.5648 38.2921 55.42C38.471 56.2089 38.6285 57.0017 38.7798 57.8627C38.3291 57.3415 37.8473 56.8384 37.3403 56.3609C36.0958 55.1251 34.489 54.2681 32.7405 53.9169C30.1004 53.6161 27.7404 55.2664 27.1358 57.7541C26.7855 59.0485 26.9972 60.4599 27.7269 61.6191C28.073 62.278 28.7438 63.1832 29.936 64.6607L30.1215 64.8902C31.5053 66.5987 31.7543 66.9056 31.9847 67.226C32.0412 67.3046 32.0966 67.3839 32.1673 67.485C32.6015 68.1329 33.3629 69.3886 34.097 70.5995C34.9178 71.9533 35.7046 73.251 35.9623 73.5807L38.4823 76.4607C38.8119 76.7653 39.6866 77.5932 40.2868 78.1612C40.5828 78.4413 40.812 78.6582 40.8762 78.7181C41.1669 78.9893 41.4337 79.2341 41.6898 79.4638C41.769 79.5347 41.8086 79.5701 41.8483 79.6053C41.8879 79.6404 41.9275 79.6754 42.0067 79.7452C42.1859 79.9025 42.3363 80.2963 42.3993 80.8715C42.4527 81.3595 42.4381 81.904 42.3799 82.4264C42.3607 82.5986 42.3423 82.7222 42.3318 82.7805C42.2076 83.4705 42.7379 84.1048 43.439 84.1048C44.2464 84.1048 45.08 84.118 46.4051 84.1475L46.8623 84.1579C50.452 84.2395 51.7977 84.2395 52.9924 84.0969C54.3577 83.9363 55.8101 82.2387 57.0424 80.1523C58.0904 82.0883 59.4364 83.78 60.8779 84.0018C62.2359 84.1466 63.552 84.1466 64.8572 84.0086C65.545 83.9359 66.005 83.2657 65.8254 82.5978C65.6094 81.7942 65.5013 80.9655 65.504 80.1335C65.4795 79.1862 65.5709 78.2727 65.7755 77.3815C66.5636 75.7231 67.7046 73.9877 69.0855 72.4521C70.1451 70.9277 70.9179 69.3929 71.4731 67.775C71.8906 65.872 72.139 64.0714 72.2518 62.2598ZM42.0042 76.6886C41.4188 76.135 40.396 75.1677 40.083 74.885L37.6819 72.1292C37.5062 71.8909 36.935 70.9452 36.2715 69.8468C35.4827 68.5408 34.5634 67.019 34.0234 66.2134C33.7731 65.8554 33.4642 65.4517 33.0427 64.9236C32.8789 64.7184 32.7619 64.5734 32.4683 64.2111L31.8699 63.474L31.6871 63.2479C30.5931 61.892 29.9671 61.0473 29.6727 60.4925C29.2361 59.7931 29.1215 59.0291 29.315 58.3134C29.6593 56.8985 30.975 55.9785 32.3934 56.1378C33.6138 56.3872 34.8235 57.0324 35.7764 57.9783C36.5267 58.6855 37.1974 59.4317 37.8026 60.2297C37.9904 60.4651 38.1085 60.6231 38.2942 60.8832C38.6136 61.3313 38.7048 61.456 38.953 61.7732C38.9707 61.7958 39.0185 61.8604 39.0815 61.9458C39.2549 62.1805 39.5438 62.5717 39.6392 62.6728C39.7565 62.8221 39.7565 62.8221 40.3548 63.0673C41.6387 62.5942 41.6458 62.5836 41.6832 61.9806C41.6979 61.7436 41.657 61.5315 41.5565 61.152C41.2137 58.6452 40.9098 56.7904 40.4861 54.9211C40.2854 54.0411 40.1581 53.5148 40.0268 53.0196L39.9843 52.8605C39.9137 52.5993 39.8324 52.3091 39.6326 51.5974C39.5224 51.2027 39.4217 50.8113 39.3052 50.3313L39.2143 49.9535C38.8498 48.4256 38.8482 48.419 38.6764 47.7713C38.3341 46.3842 38.0612 44.9609 37.8634 43.5262C37.538 41.894 37.7441 40.2662 38.4368 38.8296C39.1474 38.2542 40.1264 38.1207 40.9708 38.4973C41.8947 39.2122 42.7403 40.3816 43.1801 41.7209C43.9558 43.6239 44.4551 45.544 44.6921 47.5048C44.8222 48.3232 44.9794 49.2152 45.1895 50.3523L45.283 50.856C46.1062 55.2722 46.1118 55.3037 46.1246 55.6873C46.1737 57.1617 48.374 57.125 48.374 55.6498C48.374 55.3249 48.3677 55.1505 48.3263 54.1755C48.3102 53.7909 48.3038 53.6269 48.2966 53.4023C48.2646 52.4062 48.2805 51.7287 48.3521 51.3705C48.4893 50.6489 48.9835 50.0588 49.6597 49.801C50.3149 49.6026 51.0828 49.5525 51.8315 49.6791C52.4442 49.8081 53.0248 50.1851 53.4167 50.7281C53.9304 52.1141 54.2894 53.8432 54.3445 55.5952C54.3898 57.0356 56.5225 57.054 56.5926 55.6146C56.6653 54.1242 56.9126 52.6477 57.3295 51.2154C57.673 50.793 58.1418 50.4882 58.6704 50.3464C59.4393 50.2096 60.3186 50.2096 61.1766 50.3665C61.6193 50.5264 62.1415 50.9027 62.5197 51.4058C62.9663 52.63 63.3248 54.1958 63.4367 55.7887C63.4293 55.7866 63.4232 55.7848 63.4198 55.7871C63.4032 55.7981 63.4507 55.9049 63.7284 56.5296C64.8715 56.728 65.2185 56.7882 65.3853 56.6424C65.4579 56.5788 65.4964 56.476 65.5516 56.3285L65.5516 56.3284C65.6293 56.1701 65.6293 56.1701 65.6513 56.1029C65.679 56.0209 65.7081 55.9114 65.7593 55.713C65.8712 55.2889 65.9742 54.9585 66.108 54.6342C66.1953 54.4223 66.2873 54.2383 66.3814 54.0885C66.7098 53.2116 67.2482 52.7373 67.9074 52.6045C68.5667 52.4718 69.2467 52.7008 69.6913 53.2054C70.1359 53.71 70.2775 54.4134 70.0628 55.0507L70.004 55.4098V62.1898C69.9003 63.8194 69.6673 65.5085 69.3091 67.1732C68.8559 68.4695 68.1754 69.8212 67.3219 71.0625C65.88 72.6517 64.6138 74.5776 63.6568 76.66C63.3356 77.9538 63.2254 79.0562 63.2544 80.1594C63.2523 80.719 63.2935 81.2877 63.3772 81.855C62.64 81.8767 61.9016 81.8487 61.1672 81.7711C60.8023 81.7136 59.6873 80.3123 59.0382 79.114C58.6722 78.3793 57.8875 77.894 57.029 77.894C56.1705 77.894 55.3858 78.3793 55.0024 79.1474C54.2578 80.4292 53.0655 81.8228 52.7275 81.8625C51.6869 81.9868 50.3571 81.9868 46.9134 81.9085L46.4553 81.8981C45.7483 81.8823 45.1786 81.8712 44.6765 81.8641C44.6914 81.4502 44.6805 81.0338 44.6359 80.6266C44.5175 79.5456 44.1784 78.6578 43.4912 78.0545C43.4172 77.9892 43.3799 77.9563 43.3428 77.9233C43.3052 77.89 43.2677 77.8565 43.1924 77.7891C42.9481 77.5699 42.6917 77.3347 42.411 77.0728C42.3648 77.0297 42.2121 76.8853 42.0042 76.6886Z" fill="black"/>
<path id="Shape_3" d="M62.25 74.4777V64.1223C62.25 63.5025 61.7463 63 61.125 63C60.5037 63 60 63.5025 60 64.1223V74.4777C60 75.0975 60.5037 75.6 61.125 75.6C61.7463 75.6 62.25 75.0975 62.25 74.4777Z" fill="black"/>
<path id="Shape_4" d="M56.31 74.4739L56.25 64.1132C56.2464 63.4948 55.7398 62.9965 55.1185 63C54.4972 63.0036 53.9964 63.5078 54 64.1261L54.06 74.4868C54.0636 75.1051 54.5702 75.6035 55.1915 75.6C55.8128 75.5964 56.3136 75.0922 56.31 74.4739Z" fill="black"/>
<path id="Shape_5" d="M48 64.137L48.06 74.4762C48.0636 75.1005 48.5703 75.6036 49.1916 75.6C49.8129 75.5963 50.3136 75.0873 50.31 74.463L50.25 64.1238C50.2464 63.4995 49.7398 62.9964 49.1184 63C48.4971 63.0037 47.9964 63.5127 48 64.137Z" fill="black"/>
</g>
</g>
<defs>
<filter id="filter0_d_1183_18966" x="24.5707" y="36.0663" width="50.2395" height="53.5469" filterUnits="userSpaceOnUse" color-interpolation-filters="sRGB">
<feFlood flood-opacity="0" result="BackgroundImageFix"/>
<feColorMatrix in="SourceAlpha" type="matrix" values="0 0 0 0 0 0 0 0 0 0 0 0 0 0 0 0 0 0 127 0" result="hardAlpha"/>
<feOffset dy="1"/>
<feGaussianBlur stdDeviation="0.4"/>
<feColorMatrix type="matrix" values="0 0 0 0 0 0 0 0 0 0 0 0 0 0 0 0 0 0 0.5 0"/>
<feBlend mode="normal" in2="BackgroundImageFix" result="effect1_dropShadow_1183_18966"/>
<feBlend mode="normal" in="SourceGraphic" in2="effect1_dropShadow_1183_18966" result="shape"/>
</filter>
</defs>
</svg>
